<?xml version="1.0" standalone="no"?>
<!DOCTYPE svg PUBLIC "-//W3C//DTD SVG 1.1//EN" "http://www.w3.org/Graphics/SVG/1.1/DTD/svg11.dtd" >
<svg xmlns="http://www.w3.org/2000/svg">
<metadata></metadata>
<defs>
<font id="fs_joeyitalic" horiz-adv-x="1073" >
<font-face units-per-em="2048" ascent="1536" descent="-512" />
<missing-glyph horiz-adv-x="481" />
<glyph unicode="&#xfb01;" horiz-adv-x="974" d="M-6 -338q83 225 125 461l137 764h-125q-11 0 -15 4.5t-1 17.5l10 49q5 24 27 27l127 19l12 63q19 97 51.5 160t87.5 104q102 74 279 74q122 0 209 -33q27 -12 16 -37l-21 -47q-11 -28 -36 -20q-83 26 -189 26q-121 0 -177.5 -49.5t-84.5 -175.5l-14 -65h477q23 0 20 -23 l-186 -965q-3 -16 -21 -16h-98q-17 0 -14 16l168 871h-369l-133 -737q-53 -294 -131 -488q-10 -24 -29 -24h-84q-11 0 -16.5 7t-1.5 17z" />
<glyph unicode="&#xfb02;" horiz-adv-x="1077" d="M-6 -338q83 225 125 461l137 764h-125q-11 0 -15 4.5t-1 17.5l10 49q5 24 27 27l127 19l12 63q35 180 129.5 259t275.5 79q103 0 199 -35l90 16q27 3 21 -24l-213 -1106q-11 -59 -11.5 -85.5t9.5 -43.5q16 -21 75 -21h66q25 0 20 -26l-10 -55q-6 -25 -33 -25h-78 q-61 0 -95.5 9t-57.5 32q-51 53 -21 207l197 1014q-75 32 -166 32q-121 0 -177.5 -49.5t-84.5 -175.5l-14 -65h219q19 0 16 -21l-14 -76q-3 -20 -25 -20h-219l-133 -737q-53 -294 -131 -488q-10 -24 -29 -24h-84q-11 0 -16.5 7t-1.5 17z" />
<glyph horiz-adv-x="2048" />
<glyph horiz-adv-x="2048" />
<glyph unicode="&#xd;" horiz-adv-x="2048" />
<glyph unicode=" "  horiz-adv-x="481" />
<glyph unicode="&#x09;" horiz-adv-x="481" />
<glyph unicode="&#xa0;" horiz-adv-x="481" />
<glyph unicode="!" horiz-adv-x="446" d="M25 41q0 10 10 65q16 80 102 80h21q71 0 71 -59q0 -12 -10 -66q-15 -79 -102 -79h-21q-71 0 -71 59zM111 330l168 964q6 35 38 35h109q29 0 23 -35l-209 -964q-6 -35 -39 -35h-68q-28 0 -22 35z" />
<glyph unicode="&#x22;" horiz-adv-x="604" d="M172 963l61 403q6 43 46 43h67q22 0 29.5 -8t3.5 -31l-96 -412q-5 -19 -12.5 -25.5t-24.5 -6.5h-49q-31 0 -25 37zM457 963l61 403q6 43 45 43h68q22 0 29.5 -8t3.5 -31l-97 -412q-5 -19 -12.5 -25.5t-24.5 -6.5h-49q-30 0 -24 37z" />
<glyph unicode="#" horiz-adv-x="1374" d="M6 446l29 66q11 27 47 27h256l102 252h-264q-34 0 -18 36l28 66q11 27 47 27h261l153 374q14 35 47 35h82q35 0 19 -35l-154 -374h279l153 374q14 35 49 35h78q37 0 21 -35l-154 -374h279q38 0 22 -31l-33 -76q-11 -22 -47 -22h-274l-103 -252h283q38 0 23 -31l-33 -76 q-11 -22 -47 -22h-279l-153 -375q-14 -35 -50 -35h-75q-19 0 -24.5 7.5t1.5 27.5l154 375h-279l-153 -375q-14 -35 -50 -35h-75q-19 0 -24.5 7.5t1.5 27.5l154 375h-260q-35 0 -19 36zM485 539h279l102 252h-278z" />
<glyph unicode="$" d="M49 79q-4 8 2 27l19 48q12 36 47 22q134 -55 286 -61l99 508l-92 24q-110 31 -156.5 81.5t-46.5 141.5q0 50 22 162q30 151 130 220.5t280 74.5l33 172q6 31 35 31h36q33 0 27 -31l-33 -174q137 -6 238 -39q19 -6 23.5 -16t-1.5 -27l-16 -51q-10 -31 -51 -21 q-115 31 -215 37l-94 -477l63 -16q124 -32 174.5 -87t50.5 -151q0 -57 -22 -164q-32 -156 -133.5 -227t-274.5 -84l-35 -180q-6 -31 -34 -31h-37q-33 0 -27 31l35 178q-187 10 -311 63q-17 8 -21 16zM352 891q0 -50 26.5 -75t98.5 -46l51 -14l88 454q-207 0 -247 -198 q-17 -87 -17 -121zM502 117q102 12 161 59.5t80 142.5q17 81 17 121q0 68 -30.5 100t-133.5 60z" />
<glyph unicode="%" horiz-adv-x="1605" d="M131 821q0 51 21 170q23 116 55 184t80 109q68 59 192 59q114 0 166 -61q41 -49 41 -137q0 -62 -20 -176q-21 -111 -51.5 -179.5t-82.5 -111.5q-75 -62 -196 -62q-115 0 -164 62q-41 49 -41 143zM246 12l979 1307q16 24 49 24h72q15 0 17 -10.5t-9 -23.5l-975 -1303 q-17 -24 -49 -24h-72q-33 0 -12 30zM256 834q0 -63 23.5 -88t76.5 -25q73 0 115 53.5t70 196.5q18 95 18 162q0 57 -24 81.5t-76 24.5q-73 0 -114.5 -54.5t-68.5 -195.5q-20 -105 -20 -155zM918 186q0 57 20 170q23 116 55 184t80 109q69 60 193 60q114 0 166 -62 q41 -49 41 -137q0 -56 -21 -176q-21 -112 -51.5 -180t-81.5 -111q-74 -61 -197 -61q-116 0 -164 61q-40 48 -40 143zM1042 199q0 -63 24 -88t77 -25q73 0 114.5 53.5t69.5 196.5q19 100 19 162q0 57 -24.5 81.5t-76.5 24.5q-72 0 -113.5 -54.5t-68.5 -195.5 q-21 -110 -21 -155z" />
<glyph unicode="&#x26;" horiz-adv-x="1245" d="M55 266q0 36 6 80q24 159 104 253t216 144l-12 17q-82 113 -82 239q0 159 100 251.5t268 92.5q151 0 228.5 -64.5t77.5 -182.5q0 -155 -82 -261t-254 -196l229 -281q15 35 37 107l51 178q8 21 31 21h86q31 0 22 -27l-51 -180q-39 -131 -82 -213l146 -174q20 -22 -11 -47 l-39 -29q-19 -12 -29 -11.5t-22 15.5l-116 139q-73 -85 -180 -120t-269 -35h-22q-172 0 -261.5 71.5t-89.5 212.5zM207 285q2 -99 51.5 -146t167.5 -47h23q121 0 203 35.5t139 112.5l-351 424q-104 -54 -157 -126.5t-70 -185.5q-6 -38 -6 -67zM436 1001q0 -125 96 -247 l29 -37q137 75 193.5 157t56.5 205q0 75 -41.5 117.5t-118.5 42.5q-101 0 -158 -65t-57 -173z" />
<glyph unicode="'" horiz-adv-x="319" d="M172 963l61 403q6 43 46 43h67q22 0 29.5 -8t3.5 -31l-96 -412q-5 -19 -12.5 -25.5t-24.5 -6.5h-49q-31 0 -25 37z" />
<glyph unicode="(" horiz-adv-x="591" d="M104 348q0 281 126 551.5t352 507.5q21 24 47 8l41 -24q29 -17 8 -41q-430 -465 -430 -1028q0 -114 38.5 -260t92.5 -240q14 -23 -21 -41l-34 -17q-21 -8 -31 -5.5t-19 18.5q-78 129 -124 282.5t-46 288.5z" />
<glyph unicode=")" horiz-adv-x="591" d="M-94 -172q430 465 430 1028q0 114 -38.5 260t-92.5 240q-14 24 20 41l35 16q20 9 30 6t19 -18q77 -129 123.5 -283t46.5 -289q0 -281 -125.5 -551.5t-351.5 -506.5q-21 -25 -47 -9l-41 25q-29 17 -8 41z" />
<glyph unicode="*" horiz-adv-x="720" d="M190 1225q0 4 7 18l39 72q11 20 26 20q11 0 23 -6l172 -104l16 231q1 23 8 31t25 8h74q24 0 24 -18q0 -7 -4 -23l-76 -231l215 106q16 8 25 8q17 0 20 -22q11 -73 11 -80q0 -22 -29 -29l-236 -55l140 -166q12 -12 12 -27q0 -18 -25 -34l-65 -37q-20 -10 -29 -10 q-15 0 -26 28l-68 205l-150 -205q-21 -28 -34 -28q-8 0 -25 10l-53 37q-14 10 -14 24q0 18 26 37l209 176l-221 45q-17 3 -17 19z" />
<glyph unicode="+" d="M63 498l15 71q7 31 37 31h354l70 354q3 18 10.5 24.5t23.5 6.5h72q32 0 27 -31l-70 -354h354q32 0 25 -31l-14 -75q-6 -27 -37 -27h-355l-69 -354q-5 -31 -35 -31h-76q-27 0 -22 31l69 354h-354q-17 0 -22 7t-3 24z" />
<glyph unicode="," horiz-adv-x="436" d="M8 -240q-19 16 4 39q35 35 56 68q32 47 47 80q14 28 -4 37l-29 16q-33 17 -33 53q0 21 10 70q8 37 30 53.5t65 16.5h28q44 0 64 -16.5t20 -55.5q0 -31 -8 -72q-16 -74 -57 -147q-48 -89 -123 -160q-18 -18 -37 -4z" />
<glyph unicode="-" horiz-adv-x="608" d="M66 496l14 75q7 31 37 31h395q32 0 25 -31l-15 -79q-6 -27 -37 -27h-395q-18 0 -22.5 7.5t-1.5 23.5z" />
<glyph unicode="." horiz-adv-x="401" d="M6 35q0 29 10 78q7 39 34.5 59.5t68.5 20.5h20q36 0 56 -15t20 -43q0 -23 -10 -72q-15 -79 -105 -79h-20q-34 0 -54 14t-20 37z" />
<glyph unicode="/" horiz-adv-x="696" d="M-35 -23l705 1405q9 18 16.5 23.5t22.5 5.5h73q34 0 19 -29l-703 -1405q-8 -18 -17.5 -23t-25.5 -5h-73q-29 0 -17 28z" />
<glyph unicode="0" d="M90 352q0 121 41 338q43 224 94.5 346t134.5 197q118 110 316 110q180 0 264 -90q41 -44 57.5 -106t16.5 -166q0 -144 -41 -346q-44 -222 -91.5 -344.5t-129.5 -200.5q-116 -108 -324 -108q-176 0 -257 91.5t-81 278.5zM238 360q0 -130 45 -196t159 -66q145 0 232 103 q17 21 33 47.5t27 49.5t23 59t18.5 57t15.5 63t12 57.5t11.5 60.5t10.5 54q41 205 41 316q0 107 -24 161q-41 101 -180 101q-136 0 -224 -105q-42 -50 -74.5 -131.5t-46 -137t-33.5 -151.5q-3 -17 -5 -26q-41 -205 -41 -316z" />
<glyph unicode="1" d="M76 31l10 59q5 31 39 31h291l209 1069h-11l-258 -119q-17 -8 -26 -5.5t-15 15.5l-24 54q-12 25 16 39l295 133q41 18 82 18h64q23 0 30.5 -6t3.5 -27l-225 -1171h291q27 0 22 -31l-10 -63q-3 -27 -35 -27h-723q-32 0 -26 31z" />
<glyph unicode="2" d="M45 55l16 113q21 145 71 243.5t124 156.5t186 98l136 47q165 60 223.5 134.5t58.5 209.5q0 89 -50.5 127.5t-158.5 38.5q-133 0 -280 -52q-35 -11 -43 17l-17 61q-6 29 27 39q157 55 336 55q167 0 251.5 -66.5t84.5 -195.5q0 -105 -21 -180t-70.5 -130.5t-117 -94.5 t-172.5 -78l-148 -53q-128 -47 -193.5 -131t-86.5 -221l-11 -72h578q15 0 20.5 -6t2.5 -21l-13 -69q-6 -25 -30 -25h-658q-54 0 -45 55z" />
<glyph unicode="3" d="M62 49q-4 10 4 29l16 45q7 21 20 25t33 -3q137 -45 246 -45q133 0 209.5 44.5t109.5 150.5q23 79 23 143q0 108 -68 156q-71 49 -233 49h-55q-18 0 -22 7.5t-1 23.5l10 57q6 29 39 29h49q153 0 269 80q98 69 98 227q0 83 -50 120.5t-159 37.5q-131 0 -258 -43 q-34 -11 -43 18l-14 51q-9 30 26 41q62 22 151 36.5t163 14.5q333 0 333 -251q0 -90 -17 -149t-60 -114q-73 -92 -207 -127v-6q100 -17 149 -82.5t49 -169.5q0 -68 -18 -147q-38 -163 -157.5 -239t-331.5 -76q-141 0 -281 51q-18 6 -22 16z" />
<glyph unicode="4" d="M29 373l6 41q1 8 3 14t7.5 14.5t9 13.5t15.5 20.5t20 25.5l592 776q21 27 41 37t57 10h109q34 0 45.5 -14.5t5.5 -46.5l-156 -803h134q21 0 26.5 -6.5t3.5 -22.5l-12 -67q-3 -25 -41 -25h-133l-60 -305q-3 -19 -11 -27t-25 -8h-78q-33 0 -27 35l60 305h-562 q-19 0 -26 7.5t-4 25.5zM213 461h430l145 739h-14z" />
<glyph unicode="5" d="M63 90l19 51q6 17 19.5 21.5t25.5 -2.5q57 -27 133 -44.5t143 -17.5q149 0 228.5 55.5t122.5 176.5q28 80 28 198q0 94 -51 139.5t-143 45.5q-139 0 -269 -60q-19 -8 -27 -9.5t-24 3.5l-37 17q-16 8 -10 34l156 590q8 37 45 37h547q20 0 26.5 -7t3.5 -26l-12 -57 q-3 -18 -13 -24.5t-34 -6.5h-432q-25 0 -31 -26l-106 -398q104 51 235 51q330 0 330 -280q0 -57 -12 -134.5t-33 -135.5q-104 -301 -504 -301q-154 0 -309 67q-25 11 -15 43z" />
<glyph unicode="6" d="M115 358q0 100 39 295q41 209 91 339.5t144 217.5q142 133 397 133q125 0 218 -34q33 -13 22 -39l-25 -53q-16 -37 -47 -23q-78 33 -172 33q-166 0 -270 -84q-75 -60 -116 -158t-77 -254q60 44 144.5 72t171.5 28q164 0 243.5 -69t79.5 -213q0 -58 -18 -166 q-34 -197 -156 -300t-321 -103q-173 0 -260.5 87.5t-87.5 290.5zM262 373q0 -144 48.5 -210.5t164.5 -66.5q139 0 212 72t101 209q17 86 17 137q0 102 -44 149.5t-151 47.5q-174 0 -319 -117q-29 -156 -29 -221z" />
<glyph unicode="7" d="M105 11.5q-6 11.5 8 33.5l788 1159h-622q-26 0 -23 27l14 67q7 27 33 27h737q45 0 39 -41l-6 -33q-4 -23 -17.5 -48t-47.5 -75l-738 -1083q-14 -26 -28 -35.5t-41 -9.5h-70q-20 0 -26 11.5z" />
<glyph unicode="8" d="M80 270q0 98 30.5 183t98 154.5t164.5 105.5q-62 40 -90.5 98.5t-28.5 144.5q0 66 27 146q42 116 145.5 178.5t263.5 62.5t248 -69t88 -195q0 -82 -29 -164q-55 -150 -229 -245q164 -93 164 -254q0 -61 -19 -133q-39 -149 -154.5 -225t-297.5 -76q-191 0 -286 76.5 t-95 211.5zM233 283q0 -94 58.5 -141.5t183.5 -47.5q107 0 185.5 53.5t101.5 147.5q12 47 12 96q0 68 -36.5 117t-119.5 86l-151 72q-116 -58 -175 -156t-59 -227zM408 969q0 -76 28.5 -117t108.5 -78l119 -55q72 44 112.5 89t65.5 107q28 69 28 142q0 89 -53.5 132.5 t-146.5 43.5q-176 0 -238 -143q-24 -60 -24 -121z" />
<glyph unicode="9" d="M113 53l24 53q15 34 47 23q79 -33 178 -33q143 0 252 88q130 106 201 404q-61 -42 -143.5 -69t-167.5 -27q-167 0 -245.5 72t-78.5 224q0 66 19 166q37 200 161.5 294.5t315.5 94.5q187 0 267.5 -90.5t80.5 -263.5q0 -119 -37 -301q-40 -202 -96 -342t-152 -229 q-147 -137 -397 -137q-114 0 -207 34q-33 13 -22 39zM334 809q0 -102 43.5 -149.5t150.5 -47.5q171 0 320 117q31 148 31 244q0 145 -56 201q-50 53 -159 53q-129 0 -209 -73.5t-105 -207.5q-16 -81 -16 -137z" />
<glyph unicode=":" horiz-adv-x="473" d="M51 35q0 29 10 78q7 39 34.5 59.5t68.5 20.5h20q36 0 56 -15t20 -43q0 -23 -10 -72q-15 -79 -105 -79h-20q-34 0 -54 14t-20 37zM201 815q0 29 10 78q7 39 34 59.5t68 20.5h21q36 0 56 -15t20 -43q0 -17 -11 -71q-15 -80 -104 -80h-21q-34 0 -53.5 14t-19.5 37z" />
<glyph unicode=";" horiz-adv-x="473" d="M8 -240q-19 16 4 39q35 35 56 68q32 47 47 80q14 28 -4 37l-29 16q-33 17 -33 53q0 21 10 70q8 37 30 53.5t65 16.5h28q44 0 64 -16.5t20 -55.5q0 -31 -8 -72q-16 -74 -57 -147q-48 -89 -123 -160q-18 -18 -37 -4zM203 815q0 29 10 78q7 39 34 59.5t68 20.5h21 q36 0 56 -15t20 -43q0 -17 -11 -71q-15 -80 -104 -80h-21q-34 0 -53.5 14t-19.5 37z" />
<glyph unicode="&#x3c;" d="M119 520l6 39q3 18 27 29l704 348q34 15 45 -10l27 -58q11 -26 -19 -39l-606 -303l469 -290q30 -18 8 -50l-26 -34q-22 -28 -56 -7l-565 344q-17 10 -14 31z" />
<glyph unicode="=" d="M31 303l14 72q3 17 10 24t25 7h842q32 0 26 -31l-16 -76q-6 -27 -35 -27h-842q-18 0 -22.5 7.5t-1.5 23.5zM104 692l15 72q6 31 41 31h837q17 0 22.5 -7t2.5 -24l-14 -76q-6 -26 -37 -26h-838q-35 0 -29 30z" />
<glyph unicode="&#x3e;" d="M121 209q-12 26 18 39l606 303l-473 293q-16 12 -16 21t12 26l27 35q21 26 51 8l569 -346q18 -10 15 -31l-6 -39q-3 -18 -27 -29l-704 -348q-34 -15 -46 11z" />
<glyph unicode="?" horiz-adv-x="913" d="M133 41q0 11 10 65q7 37 35.5 58.5t67.5 21.5h20q72 0 72 -61q0 -10 -10 -64q-7 -39 -34.5 -59t-68.5 -20h-20q-33 0 -52.5 15t-19.5 44zM213 328q21 145 61 230.5t134 141.5l139 76q119 64 170 129t51 164q0 83 -54 119.5t-167 36.5q-127 0 -279 -51q-31 -9 -37 16 l-14 61q-3 14 1.5 21.5t19.5 13.5q160 57 325 57q171 0 261.5 -65.5t90.5 -187.5q0 -97 -29 -165.5t-88.5 -122.5t-168.5 -116l-127 -72q-78 -44 -108.5 -99.5t-49.5 -186.5q-3 -33 -43 -33h-68q-23 0 -20 33z" />
<glyph unicode="@" horiz-adv-x="1671" d="M129 504q0 180 61 339.5t172 280t280.5 190.5t373.5 70q129 0 236.5 -31t189 -92t127 -161t45.5 -230q0 -87 -16 -169t-51 -157.5t-85 -131.5t-123.5 -89.5t-162.5 -33.5q-80 0 -129.5 33.5t-53.5 93.5h-2q-62 -107 -231 -107q-101 0 -148 44.5t-47 121.5q0 84 56 318 q28 118 97 172.5t191 54.5q65 0 109.5 -25t56.5 -65h4l15 43q5 20 30 20h47q17 0 21.5 -6t1.5 -20l-72 -375q-20 -97 -20 -137q0 -76 92 -76q95 0 167.5 68t109 176t36.5 237q0 108 -37.5 190t-105 132t-157.5 75t-201 25q-174 0 -315.5 -61.5t-232.5 -168t-139.5 -248.5 t-48.5 -306q0 -451 516 -451q189 0 381 64q19 6 25 -17l10 -47q0 -17 -16 -22q-200 -78 -410 -78q-325 0 -486 137.5t-161 419.5zM692 494q0 -46 22 -68.5t72 -22.5q79 0 132 46t71 137l33 170q8 46 8 63q0 48 -33 73.5t-86 25.5q-135 0 -168 -144q-51 -216 -51 -280z" />
<glyph unicode="A" horiz-adv-x="1144" d="M-14 39q162 364 440 915q104 201 170 314q20 33 40.5 45t53.5 12h74q30 0 46.5 -15t23.5 -50q28 -144 49 -306q90 -691 90 -918q0 -17 -10 -26q-11 -10 -27 -10h-72q-38 0 -41 33q-7 151 -26 387h-490q-107 -232 -176 -387q-14 -33 -49 -33h-72q-16 0 -24 10q-4 5 -3 13 q0 7 3 16zM362 537h426q-9 133 -34 368q-18 159 -39 287h-25q-83 -148 -151 -287q-21 -44 -57.5 -118.5t-66 -135t-53.5 -114.5z" />
<glyph unicode="B" horiz-adv-x="1024" d="M53 76l232 1196q8 46 59 55q109 16 256 16q193 0 290 -59.5t97 -204.5q0 -137 -63.5 -240.5t-196.5 -138.5v-4q217 -31 217 -235q0 -244 -147 -357q-75 -58 -177 -81t-251 -23q-155 0 -281 18q-24 2 -32 16q-5 8 -5 23q0 9 2 19zM209 152q-1 -6 -1 -11q0 -7 2 -11 q4 -6 19 -7q60 -8 162 -8q204 0 301 82q99 86 99 258q0 95 -75.5 136.5t-250.5 41.5h-162zM326 750h127q98 0 160 15t112 50q109 78 109 244q0 94 -54 133t-180 39q-97 0 -162 -8q-12 -1 -17.5 -7.5t-8.5 -21.5z" />
<glyph unicode="C" horiz-adv-x="1036" d="M104 350q0 82 66 449q28 156 73 261t113.5 167.5t154 89t202.5 26.5q180 0 331 -86q15 -9 15 -22q0 -8 -6 -18l-31 -54q-9 -14 -19.5 -15t-27.5 9q-129 66 -262 66q-154 0 -232 -66q-66 -56 -104.5 -149.5t-71.5 -282.5q-51 -281 -51 -356q0 -90 12.5 -133t46.5 -76 q66 -60 224 -60q138 0 280 56q33 13 41 -15l14 -53q9 -30 -18 -41q-178 -65 -334 -65q-109 0 -183.5 16.5t-128.5 58t-79 113.5t-25 180z" />
<glyph unicode="D" horiz-adv-x="1187" d="M49 51l238 1217q5 25 14 35.5t33 13.5q119 18 278 18q263 0 387.5 -95t124.5 -314q0 -168 -53 -387q-31 -130 -83.5 -225.5t-119 -155.5t-159.5 -95.5t-192 -49t-228 -13.5h-195q-31 0 -41 12q-6 7 -6 20q0 9 2 19zM209 143q-1 -5 -1 -9q0 -17 21 -17h109q252 0 392 101 t198 333q53 210 53 358q0 175 -85 242.5t-286 67.5q-96 0 -168 -7q-25 -3 -30 -30z" />
<glyph unicode="E" horiz-adv-x="974" d="M78 162q0 57 31 235q67 379 147 719q26 116 94 166q61 43 191 43h438q18 1 23 -7q3 -5 3 -13q0 -5 -1 -11l-13 -59q-7 -31 -37 -31h-428q-59 0 -88 -20q-25 -20 -41 -84q-36 -140 -80 -355h500q18 0 23 -7t2 -23l-13 -60q-3 -15 -11 -22.5t-25 -7.5h-500 q-52 -261 -66 -365q-6 -50 -6 -80q2 -31 23.5 -45t68.5 -14h465q30 0 23 -31l-10 -59q-3 -17 -10 -24t-25 -7h-475q-104 0 -153.5 35.5t-49.5 126.5z" />
<glyph unicode="F" horiz-adv-x="915" d="M45 35l209 1079q24 112 88 162q66 49 182 49h424q9 0 14 -1q6 -2 10 -8q3 -4 2 -9q0 -4 -1 -9l-15 -67q-3 -27 -34 -27h-392q-69 0 -100 -24q-29 -23 -41 -93l-65 -342h495q17 0 22.5 -5.5t2.5 -20.5l-12 -68q-3 -15 -10.5 -20.5t-26.5 -5.5h-496l-115 -590 q-3 -19 -10 -27t-22 -8h-82q-18 0 -24 8q-4 5 -4 16q0 5 1 11z" />
<glyph unicode="G" horiz-adv-x="1157" d="M100 350q0 116 62 412q21 100 42 172t53 142t74.5 116t101 82t137 52.5t178.5 16.5q190 0 339 -88q15 -9 15 -22q0 -9 -6 -19l-35 -59q-9 -14 -19.5 -15t-27.5 9q-131 74 -273 74q-74 0 -132 -14t-101 -45t-74 -69t-54.5 -97t-39.5 -116.5t-33 -140.5q-55 -263 -55 -372 q0 -148 66.5 -208.5t232.5 -60.5q117 0 225 23q28 6 33 37l80 424h-184q-30 0 -25 30l12 64q5 27 37 27h297q29 0 23 -29l-115 -590q-5 -27 -13.5 -38t-31.5 -17q-172 -49 -354 -49q-109 0 -186.5 17.5t-135 59t-85.5 114t-28 177.5z" />
<glyph unicode="H" horiz-adv-x="1216" d="M45 35l244 1255q6 35 37 35h80q32 0 24 -35l-106 -549h641l106 549q6 35 37 35h80q26 0 26 -22q0 -6 -2 -13l-243 -1255q-6 -35 -39 -35h-80q-29 0 -23 35l115 588h-641l-115 -588q-6 -35 -39 -35h-79q-24 0 -24 24q0 5 1 11z" />
<glyph unicode="I" horiz-adv-x="460" d="M59 35l244 1255q8 35 37 35h80q18 1 23 -11q3 -6 3 -13q0 -5 -2 -11l-243 -1255q-6 -35 -37 -35h-80q-26 0 -26 25q0 4 1 10z" />
<glyph unicode="J" horiz-adv-x="643" d="M-49 35l10 59q5 27 31 27h86q126 0 182 100q14 25 24 57t15.5 57t15.5 79l170 876q6 35 37 35h80q26 0 26 -25q0 -4 -1 -10l-172 -889q-29 -155 -84 -245q-87 -156 -310 -156h-77q-34 0 -34 26q0 4 1 9z" />
<glyph unicode="K" horiz-adv-x="1032" d="M49 35l244 1255q8 35 37 35h80q18 0 23 -11.5t1 -23.5l-106 -549h129q52 0 82 35l442 518q25 31 57 31h82q20 -1 26 -11q2 -3 1 -6q0 -8 -8 -18l-498 -583q-16 -19 -16 -29q0 -9 6 -21l307 -630q6 -12 -0.5 -19.5t-24.5 -7.5h-96q-27 0 -37 29l-266 559q-10 21 -23.5 28 t-41.5 7h-144l-115 -588q-6 -35 -36 -35h-80q-26 0 -26 25q0 4 1 10z" />
<glyph unicode="L" horiz-adv-x="737" d="M70 104q0 56 20 154l199 1032q6 35 37 35h80q30 0 24 -35l-205 -1052q-10 -48 -10 -80q0 -21 15 -29t57 -8h321q16 0 22 -6q4 -4 4 -12q0 -4 -1 -9l-12 -67q-5 -27 -35 -27h-393q-65 0 -94 23.5t-29 80.5z" />
<glyph unicode="M" horiz-adv-x="1536" d="M25 35q193 821 307 1222q10 38 30 53t60 15h72q43 0 59 -13.5t22 -56.5q74 -493 156 -915h10q177 303 508 915q23 42 43.5 56t65.5 14h69q43 -1 59 -17q12 -13 12 -41q0 -7 -1 -16q-56 -470 -168 -1216q-3 -19 -10.5 -27t-22.5 -8h-77q-35 0 -29 35q105 642 174 1145h-14 q-48 -87 -155.5 -286.5t-190.5 -349.5t-150 -261q-27 -43 -51.5 -57.5t-61.5 -14.5h-57q-37 0 -55 14.5t-27 57.5q-61 298 -151 897h-15q-93 -344 -272 -1145q-6 -35 -37 -35h-78q-25 0 -25 24q0 5 1 11z" />
<glyph unicode="N" horiz-adv-x="1236" d="M45 35l240 1235q6 33 21 44t54 11h93q37 0 54.5 -11.5t27.5 -45.5l329 -1135h15l221 1153q8 35 37 35h69q26 0 26 -25q0 -5 -1 -10l-238 -1231q-6 -31 -24.5 -43t-55.5 -12h-90q-38 0 -54.5 10.5t-25.5 42.5l-327 1135h-15l-225 -1153q-6 -35 -39 -35h-69q-24 0 -24 24 q0 5 1 11z" />
<glyph unicode="O" horiz-adv-x="1200" d="M104 350q0 23 1.5 49t3.5 47t6 50t6.5 46t8 48.5t8 43t9 44.5t7.5 39q42 208 93 326t142 196q121 104 344 104q194 0 299 -85.5t105 -282.5q0 -145 -50 -367q-75 -346 -204 -486t-375 -140q-203 0 -303.5 82t-100.5 286zM254 373q0 -74 11 -121.5t39.5 -83t79.5 -51 t130 -15.5q93 0 160 30.5t117.5 99t85.5 163.5t67 240q43 189 43 317q0 141 -57.5 206t-202.5 65q-83 0 -140 -20t-104 -62q-71 -64 -108.5 -163t-77.5 -288q-43 -214 -43 -317z" />
<glyph unicode="P" horiz-adv-x="1032" d="M45 35l240 1237q5 23 13 32.5t26 12.5q141 26 290 26q424 0 424 -294q0 -95 -24 -191q-50 -185 -183.5 -267.5t-355.5 -82.5h-196l-93 -473q-6 -35 -41 -35h-79q-22 0 -22 23q0 6 1 12zM301 631q61 -2 170 -2q175 0 268.5 60t130.5 196q21 75 21 141q0 113 -72 155 t-229 42q-71 0 -146 -11q-18 -3 -25.5 -13t-12.5 -34z" />
<glyph unicode="Q" horiz-adv-x="1200" d="M104 350q0 23 1.5 49t3.5 47t6 50t6.5 46t8 48.5t8 43t9 44.5t7.5 39q42 208 93 326t142 196q121 104 344 104q194 0 299 -85.5t105 -282.5q0 -145 -50 -367q-62 -283 -157 -425t-254 -183q37 -64 102 -135t135 -123q29 -20 0 -39l-59 -37q-26 -14 -40.5 -14t-31.5 14 q-154 126 -241 316h-33q-203 0 -303.5 82t-100.5 286zM254 373q0 -74 11 -121.5t39.5 -83t79.5 -51t130 -15.5q94 0 159 26.5t115 92.5t85.5 163t70.5 251q43 189 43 317q0 141 -57.5 206t-202.5 65q-83 0 -140 -20t-104 -62q-71 -64 -109.5 -165t-76.5 -286 q-43 -201 -43 -317z" />
<glyph unicode="R" horiz-adv-x="1040" d="M45 29l240 1243q4 25 16.5 36.5t36.5 16.5q108 18 242 18q105 0 183 -13.5t136.5 -44t88.5 -83.5t30 -129q0 -101 -33 -199q-39 -120 -109.5 -187t-185.5 -97l225 -559q8 -13 1.5 -22t-25.5 -9h-105q-24 0 -30 18l-203 531q-7 16 -29 16h-59q-104 0 -176 2l-103 -538 q-5 -29 -41 -29h-79q-16 0 -20 6q-3 3 -2 11q0 5 1 12zM313 690q66 -4 162 -4q165 0 247.5 46t121.5 163q28 88 28 149q0 102 -73 140.5t-234 38.5q-61 0 -119 -9q-20 -3 -28 -11.5t-12 -35.5z" />
<glyph unicode="S" horiz-adv-x="999" d="M22 61q-1 4 -1 9q0 8 4 20l16 53q11 35 47 21q145 -64 287 -64q129 0 211 46t114 153q27 91 27 129q0 70 -37.5 106.5t-130.5 61.5l-158 43q-122 33 -172.5 96t-50.5 166q0 71 39 186q20 61 50.5 105.5t79.5 79.5t122.5 53t171.5 18q173 0 303 -47q17 -6 17 -24 q0 -8 -3 -17l-20 -57q-11 -28 -47 -16q-136 41 -262 41q-123 0 -188.5 -42.5t-90.5 -131.5q-26 -96 -26 -140q0 -55 29 -88t108 -55l186 -51q123 -34 175 -92.5t52 -161.5q0 -71 -34 -189q-42 -149 -155 -219.5t-302 -70.5q-186 0 -340 63q-17 6 -21 16z" />
<glyph unicode="T" horiz-adv-x="952" d="M156 1235l12 63q6 27 37 27h837q18 1 23 -7q3 -5 3 -13q0 -5 -1 -11l-12 -59q-7 -31 -37 -31h-348l-228 -1169q-6 -35 -36 -35h-80q-31 0 -25 35l227 1169h-348q-25 0 -25 21q0 4 1 10z" />
<glyph unicode="U" horiz-adv-x="1198" d="M109 293q0 68 14 137l166 860q9 35 37 35h80q33 0 24 -35l-164 -846q-16 -91 -16 -141q0 -201 266 -201q88 0 147 17t105 57q48 43 75 100.5t48 167.5l164 846q9 35 37 35h79q27 0 27 -22q0 -6 -2 -13l-166 -860q-25 -129 -64.5 -214t-101.5 -136q-114 -98 -368 -98 q-83 0 -149.5 15.5t-121.5 50t-85.5 97t-30.5 148.5z" />
<glyph unicode="V" horiz-adv-x="1044" d="M168 1289q0 17 12 26q12 10 29 10h65q36 0 39 -33q40 -653 109 -1151h24q318 587 560 1151q13 33 49 33h78q21 -1 26 -9q2 -3 2 -7q0 -9 -6 -23q-262 -614 -602 -1214q-24 -43 -43.5 -57.5t-56.5 -14.5h-74q-38 0 -53 15t-23 57q-135 735 -135 1217z" />
<glyph unicode="W" horiz-adv-x="1593" d="M168 1290q0 20 9 27.5t34 7.5h59q25 0 34 -7t9 -28q-2 -156 -1 -301q0 -496 18 -854h22q270 631 445 1059q16 40 31 53t51 13h92q39 0 55 -15t16 -51q0 -563 35 -1059h23q232 504 483 1157q13 33 49 33h78q28 0 28 -20q0 -8 -5 -19q-185 -483 -516 -1214q-18 -40 -41 -56 t-56 -16h-98q-71 0 -76 72q-36 444 -36 899q0 67 1 133h-16q-6 -16 -55.5 -138t-62.5 -152.5t-55.5 -134.5t-65 -156t-59.5 -139t-70 -161.5t-68 -150.5q-18 -40 -41.5 -56t-59.5 -16h-90q-68 0 -73 72q-27 439 -27 1086v132z" />
<glyph unicode="X" horiz-adv-x="1034" d="M-57 35l407 624q18 25 12 50l-167 577q-10 39 32 39h64q15 0 21 -1t12 -6.5t10 -17.5l139 -514q8 -27 16 -36t25 -9h33q22 0 34.5 8t32.5 37l334 517q15 22 56 22h88q18 1 22 -7q1 -2 0 -4q0 -8 -10 -26l-387 -579q-19 -28 -10 -56l215 -622q9 -31 -23 -31h-96 q-28 0 -33 18l-182 566q-7 24 -17.5 31.5t-35.5 7.5h-19q-27 0 -38 -6.5t-29 -32.5l-349 -557q-17 -27 -43 -27h-102q-21 0 -21 13q0 8 9 22z" />
<glyph unicode="Y" horiz-adv-x="927" d="M168 1303q0 11 6 16q8 6 21 6h90q15 0 22 -4t8 -16q39 -419 140 -709h14q270 386 430 709q10 20 37 20h90q13 0 20 -6q4 -3 4 -8t-3 -11q-104 -218 -229.5 -416t-307.5 -438l-80 -411q-6 -35 -37 -35h-80q-30 0 -24 35l80 416q-201 512 -201 852z" />
<glyph unicode="Z" horiz-adv-x="1005" d="M-14 33l4 37q3 17 12 33.5t16 25.5t31 39l830 1036h-648q-26 0 -20 29l12 65q6 27 33 27h766q24 1 33 -9q7 -7 7 -23q0 -5 -1 -11l-4 -29q-4 -28 -19.5 -51.5t-64.5 -85.5l-795 -995h641q24 0 21 -27l-13 -67q-7 -27 -30 -27h-774q-21 0 -30 8q-7 7 -7 19v6z" />
<glyph unicode="[" horiz-adv-x="555" d="M-4 -158l295 1526q6 29 37 29h303q18 0 22.5 -7.5t1.5 -23.5l-10 -63q-5 -27 -39 -27h-207l-258 -1344h207q30 0 25 -30l-13 -64q-6 -26 -36 -26h-308q-12 0 -17.5 8t-2.5 22z" />
<glyph unicode="\" horiz-adv-x="741" d="M242 1378q-3 33 26 33h74q16 0 23 -5.5t10 -23.5l157 -1400q3 -33 -26 -33h-74q-16 0 -23 5t-10 23z" />
<glyph unicode="]" horiz-adv-x="555" d="M-96 -158l10 64q3 15 11.5 20.5t27.5 5.5h207l258 1344h-207q-30 0 -25 31l13 63q6 27 37 27h307q12 0 17.5 -8.5t2.5 -22.5l-295 -1526q-6 -28 -37 -28h-303q-18 0 -22.5 7t-1.5 23z" />
<glyph unicode="^" d="M122.5 714q-0.5 13 8.5 23l414 463q26 33 69 33h68q43 0 59 -33l232 -459q10 -20 7.5 -31t-19.5 -20l-56 -24q-35 -17 -51 14l-213 393h-16l-371 -397q-28 -31 -57 -14l-62 32q-12 7 -12.5 20z" />
<glyph unicode="_" horiz-adv-x="1030" d="M-74 -154l13 56q3 12 9.5 16t24.5 4h848q15 0 19.5 -5t1.5 -17l-13 -56q-3 -12 -9.5 -16t-24.5 -4h-848q-15 0 -19.5 5t-1.5 17z" />
<glyph unicode="`" horiz-adv-x="630" d="M229 1386l23 64q7 18 19 21t32 -7l387 -172q27 -12 15 -37l-21 -47q-8 -21 -41 -10l-391 139q-35 13 -23 49z" />
<glyph unicode="a" horiz-adv-x="956" d="M53 184q0 98 37 203q38 107 124 158t255 51h88q60 0 150 -8l16 78q16 78 16 116q0 71 -39.5 98t-154.5 27q-113 0 -250 -39q-39 -12 -45 23l-8 51q-3 26 26 35q158 45 297 45q151 0 229 -49.5t78 -161.5q0 -45 -16 -123l-129 -668q-3 -20 -25 -20h-67q-24 0 -21 25l9 73 h-5q-82 -116 -264 -116h-51q-250 0 -250 202zM186 197q0 -103 140 -103h43q233 0 286 236l31 145q-65 8 -147 8h-99q-102 0 -153 -33.5t-78 -121.5q-23 -73 -23 -131z" />
<glyph unicode="b" horiz-adv-x="999" d="M92 236q0 63 23 184l184 944q3 22 25 22h88q23 0 20 -22l-84 -434h4q96 92 262 92t246 -80q35 -37 50.5 -85t15.5 -124q0 -92 -39 -282q-35 -170 -68 -248.5t-92 -132.5q-54 -49 -126 -68.5t-185 -19.5q-165 0 -244.5 61.5t-79.5 192.5zM225 240q0 -79 48 -112.5 t155 -33.5q136 0 203 62q42 39 67.5 104.5t55.5 206.5q32 150 32 238q0 58 -7 90.5t-29 58.5q-46 55 -170 55q-119 0 -193 -61q-39 -33 -58.5 -77.5t-37.5 -133.5l-47 -246q-19 -93 -19 -151z" />
<glyph unicode="c" horiz-adv-x="856" d="M78 270q0 94 49 332q46 223 160 321.5t295 98.5q70 0 142.5 -21.5t125.5 -54.5q11 -7 11 -18q0 -9 -7 -21l-27 -45q-15 -26 -39 -14q-109 61 -213 61q-131 0 -207.5 -78t-115.5 -270q-41 -198 -41 -280q0 -106 47 -146.5t172 -40.5q110 0 227 45q29 11 35 -18l13 -51 q3 -14 -1 -21.5t-20 -13.5q-52 -21 -130.5 -37t-145.5 -16q-172 0 -251 67t-79 221z" />
<glyph unicode="d" horiz-adv-x="995" d="M78 262q0 77 37 295q53 305 170 397q85 68 256 68q213 0 256 -125h4l90 467q3 22 27 22h86q18 0 18 -17v-5l-188 -973q-25 -128 -60.5 -207.5t-89.5 -124.5q-52 -43 -121 -60t-176 -17q-163 0 -236 63.5t-73 216.5zM211 287q0 -102 41.5 -147.5t150.5 -45.5 q70 0 114 11.5t77 39.5q64 58 94 209l57 283q11 53 11 92q0 84 -55 132t-154 48q-122 0 -178 -51q-41 -36 -69 -109.5t-52 -199.5q-37 -194 -37 -262z" />
<glyph unicode="e" horiz-adv-x="921" d="M78 258q0 91 37 305q27 150 60.5 236.5t88.5 138.5q49 46 118.5 65t170.5 19q303 0 303 -270q0 -41 -10 -103l-33 -182q-6 -41 -59 -41h-529q-16 -88 -16 -145q0 -110 47.5 -148.5t181.5 -38.5q121 0 254 47q35 12 41 -16l10 -47q3 -15 -3 -24t-29 -17q-149 -55 -295 -55 q-98 0 -165.5 18.5t-104.5 56t-52.5 86t-15.5 115.5zM246 532h416q26 0 32 23l17 86q12 58 12 109q0 85 -43 122t-145 37q-115 0 -168 -45q-37 -32 -61 -88.5t-44 -157.5z" />
<glyph unicode="f" horiz-adv-x="614" d="M-6 -338q83 225 125 461l137 764h-125q-11 0 -15 4.5t-1 17.5l10 49q5 24 27 27l127 19l12 63q18 91 42 151t66 104t104.5 63.5t153.5 19.5q87 0 160 -21q20 -6 20 -22q0 -6 -3 -14l-17 -48q-8 -26 -35 -20q-58 14 -123 14q-57 0 -91.5 -8t-62.5 -33.5t-45.5 -68 t-33.5 -115.5l-14 -65h219q19 0 16 -21l-14 -76q-3 -20 -25 -20h-219l-133 -737q-53 -294 -131 -488q-10 -24 -29 -24h-84q-11 0 -16 7q-4 4 -4 9q0 4 2 8z" />
<glyph unicode="g" horiz-adv-x="985" d="M78 256q0 87 47 342q23 121 50 196t73.5 129t115 76.5t171.5 22.5q110 0 176.5 -36.5t87.5 -98.5h4l28 88q6 17 14.5 23t26.5 6h48q27 0 27 -23q0 -5 -1 -10l-186 -969q-19 -101 -46 -169t-73 -118.5t-114.5 -74t-166.5 -23.5q-131 0 -258 39q-26 9 -14 39l18 51 q10 24 41 14q105 -30 228 -30q111 0 174 69q53 58 82 199l20 96h-6q-79 -112 -266 -112q-148 0 -224.5 65t-76.5 209zM211 266q0 -96 45 -135q42 -37 135 -37q121 0 200 65t103 193l51 266q15 84 15 111q0 84 -57 132t-154 48q-71 0 -117 -14t-81 -52.5t-57 -101t-40 -163.5 q-4 -24 -14.5 -83.5t-15 -87.5t-9 -69t-4.5 -72z" />
<glyph unicode="h" horiz-adv-x="1017" d="M51 31l258 1333q3 22 31 22h82q13 0 17.5 -4.5t2.5 -15.5l-88 -451h6q41 44 84 66q77 41 207 41q97 0 155 -23t89 -73q30 -48 33 -120q0 -9 1 -18q0 -67 -20 -167l-112 -592q-4 -29 -31 -29h-72q-23 0 -29 6.5t-1 28.5l114 598q19 91 19 142q0 54 -23 85 q-20 28 -56.5 39.5t-101.5 11.5q-125 0 -204 -65q-83 -68 -115 -230l-113 -585q-3 -31 -34 -31h-70q-20 0 -26 7q-4 5 -4 14q0 5 1 10z" />
<glyph unicode="i" horiz-adv-x="462" d="M78 16l186 965q3 23 29 23h84q23 0 20 -23l-186 -965q-3 -16 -21 -16h-98q-17 0 -14 16zM283 1229q0 12 8 53q17 88 112 88h9q75 0 75 -59q0 -16 -10 -60q-10 -46 -34.5 -64t-71.5 -18h-9q-79 0 -79 60z" />
<glyph unicode="j" horiz-adv-x="440" d="M-258 -334l12 60q2 11 9.5 17.5t17.5 6.5h45q104 0 166 68q55 60 84 207l182 956q3 23 29 23h84q23 0 20 -23l-184 -967q-35 -190 -123 -278q-95 -98 -272 -98h-48q-23 0 -23 19q0 4 1 9zM274 1229q0 13 9 53q10 48 36.5 68t75.5 20h8q76 0 76 -59q0 -5 -8 -51 q-17 -91 -109 -91h-8q-80 0 -80 60z" />
<glyph unicode="k" horiz-adv-x="892" d="M49 16l260 1348q1 10 10.5 16t20.5 6h80q10 0 16 -6.5t4 -15.5l-147 -770h92q46 0 72 33l307 354q17 23 43 23h94q13 0 17 -8q1 -2 0 -4q0 -8 -9 -21l-366 -414q-11 -13 -11 -30q0 -14 7 -31l211 -469q5 -11 -0.5 -19t-18.5 -8h-88q-24 0 -31 20l-184 431 q-10 24 -21.5 31t-39.5 7h-95l-92 -473q-3 -16 -20 -16h-94q-9 0 -13.5 4.5t-3.5 11.5z" />
<glyph unicode="l" horiz-adv-x="522" d="M102 248l215 1114q3 24 27 24h86q21 0 21 -19v-5l-213 -1106q-11 -59 -11.5 -85.5t9.5 -43.5q16 -21 75 -21h66q25 0 20 -26l-10 -55q-6 -25 -33 -25h-78q-61 0 -95.5 9t-57.5 32q-32 33 -32 107q0 43 11 100z" />
<glyph unicode="m" horiz-adv-x="1603" d="M51 31l182 952q3 21 27 21h62q13 0 18.5 -5t3.5 -16l-10 -86h4q53 62 115 90q75 35 182 35q121 0 188 -45q53 -37 72 -92h4q61 62 153 99.5t181 37.5q185 0 246 -98q34 -53 34 -146q0 -68 -18 -157l-115 -590q-3 -18 -11 -24.5t-26 -6.5h-69q-16 0 -23 6.5t-4 24.5 l117 602q13 72 13 124q0 59 -17 89q-36 65 -154 65q-169 0 -288 -135q0 -42 -15 -131l-117 -614q-3 -18 -10 -24.5t-24 -6.5h-70q-19 0 -25.5 7t-3.5 24l117 602q13 66 13 115q0 66 -23 102q-41 61 -160 61q-115 0 -190 -63q-82 -70 -107 -197l-119 -620q-2 -11 -5 -16.5 t-10 -10t-19 -4.5h-70q-20 0 -26 7q-4 5 -4 14q0 5 1 10z" />
<glyph unicode="n" horiz-adv-x="1017" d="M51 31l182 952q3 21 27 21h62q13 0 18.5 -5t3.5 -16l-10 -88h4q41 50 106 86q77 41 207 41q97 0 155 -23t89 -73q30 -48 33 -120q0 -9 1 -18q0 -67 -20 -167l-112 -592q-4 -29 -31 -29h-72q-23 0 -29 6.5t-1 28.5l114 598q19 91 19 142q0 54 -23 85q-20 28 -56.5 39.5 t-101.5 11.5q-125 0 -204 -65q-83 -68 -115 -230l-113 -585q-2 -11 -5 -16.5t-10 -10t-19 -4.5h-70q-20 0 -26 7q-4 5 -4 14q0 5 1 10z" />
<glyph unicode="o" horiz-adv-x="980" d="M78 268q0 92 33 269q28 139 59.5 224.5t85.5 147.5t132 87.5t196 25.5q171 0 246 -70.5t75 -216.5q0 -91 -33 -268q-28 -139 -59.5 -224.5t-85.5 -147.5t-132 -87.5t-196 -25.5q-162 0 -241.5 68.5t-79.5 217.5zM213 272q0 -97 49 -137.5t156 -40.5q67 0 116.5 19.5 t82 51.5t57.5 90.5t40 117.5t31 151q25 154 25 207q0 95 -48.5 136.5t-156.5 41.5q-67 0 -116.5 -19.5t-82 -51.5t-57.5 -90.5t-40 -117.5t-31 -151q-25 -154 -25 -207z" />
<glyph unicode="p" horiz-adv-x="1026" d="M-23 -340l254 1315q3 17 9.5 23t21.5 6h60q25 0 22 -29l-10 -80h4q43 59 111 92q75 35 186 35q170 0 250 -80q35 -37 50 -84.5t15 -124.5q0 -92 -39 -282q-35 -170 -68 -248.5t-91 -132.5q-54 -48 -126.5 -68t-185.5 -20q-190 0 -241 118h-4l-84 -440q-3 -22 -23 -22h-94 q-17 0 -17 17v5zM250 383q-10 -53 -10 -96q0 -77 32 -123q51 -70 181 -70q131 0 198 62q42 39 70.5 109t56.5 202q33 154 33 238q0 105 -37 149q-46 55 -176 55q-133 0 -203 -61q-40 -34 -59 -80.5t-39 -144.5z" />
<glyph unicode="q" horiz-adv-x="983" d="M78 256q0 82 47 342q22 129 54 211.5t83 129.5t113.5 65t156.5 18q111 0 178.5 -36.5t88.5 -98.5h4l28 88q6 17 14.5 23t26.5 6h48q27 0 27 -23q0 -5 -1 -10l-252 -1311q-3 -22 -26 -22h-93q-24 0 -18 26l94 430h-6q-45 -60 -109.5 -86t-158.5 -26q-148 0 -223.5 64.5 t-75.5 209.5zM211 266q0 -93 41.5 -132.5t136.5 -39.5q123 0 201 64.5t104 193.5l51 266q15 81 15 111q0 84 -56.5 132t-160.5 48q-61 0 -105.5 -14.5t-73.5 -39t-50.5 -69t-34 -91t-25.5 -117.5q-43 -226 -43 -312z" />
<glyph unicode="r" horiz-adv-x="641" d="M51 27l185 956q3 21 26 21h62q13 0 18.5 -5t3.5 -16l-14 -109h4q51 66 115 99q64 31 147 31h64q15 0 19 -6q3 -4 4 -11q0 -4 -1 -8l-14 -70q-6 -22 -31 -22h-66q-105 0 -176 -62q-74 -65 -98 -200l-115 -598q-7 -27 -39 -27h-63q-18 0 -26 7q-5 5 -6 13q0 3 1 7z" />
<glyph unicode="s" horiz-adv-x="827" d="M16 78l19 57q11 28 41 15q131 -54 246 -54q86 0 141.5 24t83.5 81q28 58 28 127q0 42 -27 66t-97 48l-127 39q-189 57 -189 205q0 56 21 127q34 112 115.5 160.5t232.5 48.5q126 0 239 -39q27 -10 27 -28q0 -4 -2 -9l-18 -59q-10 -29 -43 -17q-98 37 -211 37 q-96 0 -142 -27t-69 -87q-19 -53 -19 -93q0 -38 22.5 -63t80.5 -43l135 -41q112 -35 156.5 -80.5t44.5 -136.5q0 -31 -10 -77.5t-23 -80.5q-44 -106 -133 -151t-226 -45q-136 0 -278 57q-21 8 -21 26q0 6 2 13z" />
<glyph unicode="t" horiz-adv-x="634" d="M104 909l11 49q5 24 26 27l127 19l45 231q1 10 9.5 17.5t19.5 7.5h84q24 0 20 -25l-45 -231h220q16 0 16 -16v-5l-14 -76q-3 -20 -25 -20h-219l-111 -592q-11 -54 -11 -89v-11q2 -38 24 -60q17 -17 44 -23t83 -6h86q9 0 12 -0.5t6.5 -5.5t1.5 -16l-12 -61q-3 -23 -27 -23 h-96q-142 0 -199 49q-55 46 -55 139q0 37 12 107l109 592h-125q-18 0 -18 15q0 3 1 7z" />
<glyph unicode="u" horiz-adv-x="1001" d="M92 219q0 42 14 121l123 635q6 29 35 29h76q28 0 22 -29l-120 -615q-15 -74 -15 -120q0 -74 43.5 -107t153.5 -33q132 0 199 64q34 32 52.5 75t33.5 123l120 615q1 12 9.5 19.5t19.5 7.5h82q22 0 22 -18q0 -4 -1 -9l-123 -635q-21 -107 -48.5 -168.5t-76.5 -103.5 q-55 -47 -126 -67.5t-184 -20.5q-311 0 -311 237z" />
<glyph unicode="v" horiz-adv-x="860" d="M104 975q0 14 8.5 21.5t20.5 7.5h78q29 0 29 -25q12 -415 86 -875h18q207 348 430 875q10 25 37 25h82q11 0 16 -7q2 -4 2.5 -9.5t-2.5 -12.5q-203 -484 -450 -905q-23 -40 -49 -55t-62 -15h-65q-36 0 -55 17t-27 69q-76 432 -97 889z" />
<glyph unicode="w" horiz-adv-x="1331" d="M104 969q0 19 8 27t27 8h68q19 0 26 -7.5t7 -27.5q-6 -133 -6 -275q0 -277 24 -590h10q68 139 185.5 413.5t162.5 375.5q28 61 76 61h92q29 0 40.5 -13.5t13.5 -47.5q12 -389 34 -789h11q187 396 358 865q6 20 16 27.5t29 7.5h72q20 0 24 -8q2 -3 1 -9q0 -7 -3 -18 q-40 -93 -111 -271t-134.5 -328t-130.5 -286q-23 -49 -44.5 -66.5t-56.5 -17.5h-69q-38 0 -56 18t-22 66q-29 352 -35 747h-10q-96 -248 -326 -747q-23 -49 -46 -66.5t-60 -17.5h-70q-35 0 -51.5 17.5t-20.5 66.5q-33 403 -33 885z" />
<glyph unicode="x" horiz-adv-x="884" d="M-56 6q-1 2 -2 5q0 5 5 12l346 466q23 29 10 58l-170 424q-6 16 1 24.5t20 8.5h77q26 0 35 -23l146 -385q7 -19 11.5 -26t14.5 -7h15q13 0 36 29l287 389q17 23 43 23h101q17 0 17 -11q0 -8 -9 -22l-340 -436q-19 -28 -8 -56l206 -456q10 -23 -16 -23h-100q-20 0 -23 14 l-176 412q-8 19 -15 26t-20 7h-12q-22 0 -43 -33l-289 -412q-8 -14 -26 -14h-107q-11 0 -15 6z" />
<glyph unicode="y" horiz-adv-x="845" d="M106 979q0 25 27 25h86q25 0 25 -23q20 -489 63 -815q6 -46 41 -49q187 341 410 870q7 17 26 17h93q13 0 17 -8q2 -4 2 -8q0 -5 -3 -11q-173 -404 -315 -686q-146 -290 -340 -625q-11 -19 -22 -24q-5 -2 -11 -2q-8 0 -19 4l-63 24q-18 6 -18 20q0 11 10 25 q122 206 176 301q-90 13 -107 129q-48 308 -78 836z" />
<glyph unicode="z" horiz-adv-x="829" d="M-20 39l4 20q8 36 53 91l604 737h-473q-24 0 -18 28l12 64q6 25 28 25h613q20 0 27 -8q5 -6 5 -19q0 -5 -1 -12l-5 -27q-1 -7 -3.5 -14t-5.5 -12.5t-10.5 -15t-13 -16t-19 -22t-23.5 -27.5l-590 -714h491q27 0 21 -25l-14 -67q-6 -25 -33 -25h-617q-34 0 -34 26q0 6 2 13 z" />
<glyph unicode="{" horiz-adv-x="624" d="M123 575l10 54q5 27 29 33q86 19 130.5 61t61.5 127l62 313q26 134 85 196t154 62h86q15 0 18.5 -6t0.5 -22l-10 -68q-3 -25 -29 -25h-66q-50 0 -74.5 -36t-43.5 -134l-58 -292q-21 -112 -69 -167.5t-140 -80.5v-6q62 -27 89.5 -65.5t27.5 -104.5q0 -35 -10 -97l-53 -276 q-11 -56 -11 -80q0 -59 72 -59h66q22 0 16 -25l-12 -67q-3 -16 -9 -22.5t-20 -6.5h-78q-77 0 -119.5 42.5t-42.5 115.5q0 29 11 100l57 297q6 37 6 63q0 55 -29 86t-92 56q-22 10 -16 34z" />
<glyph unicode="|" horiz-adv-x="428" d="M41 -10l268 1388q6 35 37 35h68q30 0 24 -35l-268 -1388q-6 -35 -35 -35h-67q-33 0 -27 35z" />
<glyph unicode="}" horiz-adv-x="624" d="M-113 -190l11 67q3 25 28 25h66q50 0 75 36t44 134l57 293q21 112 69 167t140 80v6q-62 27 -89.5 65.5t-27.5 104.5q0 35 10 97l54 276q10 51 10 80q0 59 -72 59h-65q-23 0 -17 25l13 68q3 16 8.5 22t19.5 6h78q77 0 119.5 -42t42.5 -115q0 -36 -10 -101l-58 -297 q-6 -38 -6 -63q0 -55 28.5 -85.5t92.5 -55.5q22 -10 16 -35l-10 -54q-5 -26 -29 -32q-86 -19 -130.5 -61.5t-61.5 -127.5l-62 -313q-26 -134 -85 -196t-154 -62h-86q-14 0 -18 6.5t-1 22.5z" />
<glyph unicode="~" d="M32 561q-1 11 13 33q169 237 317 237q86 0 164 -61l109 -82q57 -45 96 -45q78 0 195 158q23 36 57 14l43 -31q16 -11 18 -22t-10 -33q-84 -126 -159 -178.5t-154 -52.5q-97 0 -178 61l-101 78q-35 26 -55 36.5t-43 10.5q-39 0 -82 -33.5t-110 -120.5q-30 -37 -62 -18 l-41 27q-16 11 -17 22z" />
<glyph unicode="&#xa1;" horiz-adv-x="446" d="M74 -291l209 965q6 35 39 35h67q29 0 23 -35l-168 -965q-6 -35 -39 -35h-109q-28 0 -22 35zM293 877q0 11 10 65q7 39 34.5 59.5t68.5 20.5h20q72 0 72 -59q0 -5 -11 -66q-16 -80 -102 -80h-20q-34 0 -53 15.5t-19 44.5z" />
<glyph unicode="&#xa2;" d="M168 254q0 108 37 305q30 158 65 241t97 138q97 81 266 84l33 176q3 17 9.5 22t22.5 5h41q17 0 22.5 -6t2.5 -21l-35 -182q123 -20 203 -76q20 -13 4 -39l-33 -49q-16 -24 -43 -6q-31 20 -74.5 36t-78.5 19l-158 -807q100 7 207 47q34 12 37 -20l4 -51q2 -14 -4 -22 t-25 -15q-110 -43 -240 -49l-30 -162q-6 -31 -35 -31h-37q-33 0 -27 31l31 162q-262 23 -262 270zM301 270q0 -79 35.5 -122t116.5 -52l157 811q-55 -1 -96.5 -18t-68.5 -44t-48 -76.5t-33 -97.5t-26 -124q-37 -195 -37 -277z" />
<glyph unicode="&#xa3;" d="M6 29l8 43q1 10 6.5 18t9 11.5t18.5 13.5t20 14q98 68 149.5 144.5t73.5 187.5l33 164h-109q-17 0 -22 6t-3 20l7 39q3 17 12 24.5t29 10.5l110 20l45 238q20 107 53.5 173t90.5 110q104 77 284 77q63 0 131.5 -16.5t118.5 -42.5q24 -13 12 -39l-26 -57q-14 -28 -45 -12 q-107 47 -203 47q-116 0 -182.5 -54.5t-89.5 -177.5l-48 -246h359q20 0 28 -6.5t5 -21.5l-17 -68q-5 -24 -41 -24h-360l-27 -140q-45 -230 -219 -360v-4h627q21 0 26 -7t2 -30l-10 -51q-5 -33 -39 -33h-786q-19 0 -26.5 7t-4.5 22z" />
<glyph unicode="&#xa4;" d="M-8 197.5q2 10.5 16 23.5l172 144q-35 65 -35 151q0 163 111 287l-109 133q-17 22 9 45l61 49q26 22 43 0l111 -137q109 61 235 61q120 0 207 -65l172 141q23 23 43 0l41 -49q14 -23 -8 -45l-170 -139q39 -70 39 -156q0 -168 -115 -293l107 -127q15 -22 -11 -45l-59 -49 q-28 -22 -43 0l-111 133q-104 -55 -227 -55q-128 0 -211 65l-176 -143q-26 -24 -43 0l-43 49q-8 11 -6 21.5zM289 524q0 -86 56 -139t144 -53q125 0 210 86t85 215q0 86 -56 140t-144 54q-124 0 -209.5 -87.5t-85.5 -215.5z" />
<glyph unicode="&#xa5;" d="M137 272l10 54q7 30 37 30h250l25 119h-252q-18 0 -23 7.5t-2 23.5l11 53q3 31 34 31h195q-111 309 -172 713q-1 12 6 18t18 6h91q29 0 34 -20q58 -359 156 -656h14q203 277 412 656q10 20 39 20h90q11 0 16.5 -5.5t-0.5 -18.5q-121 -227 -220 -384t-228 -329h192 q30 0 27 -31l-10 -57q-4 -27 -35 -27h-252l-25 -119h254q30 0 23 -30l-10 -58q-6 -26 -37 -26h-252l-39 -207q-6 -35 -41 -35h-80q-15 0 -19 8t-1 27l39 207h-250q-18 0 -23 7t-2 23z" />
<glyph unicode="&#xa6;" horiz-adv-x="428" d="M41 -10l90 469q8 35 39 35h68q19 0 23 -9t-1 -26l-90 -469q-6 -35 -39 -35h-68q-28 0 -22 35zM219 909l90 469q6 35 37 35h64q34 0 28 -35l-90 -469q-6 -35 -35 -35h-67q-33 0 -27 35z" />
<glyph unicode="&#xa7;" horiz-adv-x="868" d="M31 45q-3 8 2 21l18 59q9 27 37 16q115 -45 234 -45q170 0 208 74q23 47 23 96q0 51 -26 75t-101 48l-119 37q-89 28 -131.5 70t-42.5 120q0 101 51 167.5t142 93.5q-109 42 -109 151q0 60 16 117q31 104 114.5 151t234.5 47q127 0 231 -36q23 -8 14 -35l-18 -60 q-9 -27 -37 -16q-91 33 -197 33q-99 0 -150 -24.5t-69 -86.5q-10 -33 -10 -65q0 -39 28 -63t87 -38l119 -28q99 -24 141.5 -70t42.5 -123q0 -96 -53 -167t-142 -103q113 -51 113 -168q0 -69 -23 -143q-28 -89 -114 -128.5t-230 -39.5q-143 0 -268 49q-13 6 -16 14zM262 639 q0 -45 24.5 -70t88.5 -45l88 -26q172 57 172 211q0 86 -103 108l-108 25q-80 -30 -121 -77.5t-41 -125.5z" />
<glyph unicode="&#xa8;" horiz-adv-x="698" d="M225 1286q0 10 11 70q7 38 35 59t67 21h20q36 0 56 -15.5t20 -44.5q0 -21 -10 -67q-7 -39 -36 -59.5t-71 -20.5h-20q-72 0 -72 57zM557 1286q0 8 10 70q6 38 33.5 59t69.5 21h20q36 0 56 -15.5t20 -44.5q0 -18 -10 -67q-7 -39 -36 -59.5t-71 -20.5h-20q-72 0 -72 57z" />
<glyph unicode="&#xa9;" horiz-adv-x="1656" d="M96 559q0 193 68 359.5t187 284t286.5 184.5t359.5 67q179 0 318 -69t218 -203t79 -314q0 -192 -66.5 -358.5t-184 -285t-286.5 -186t-366 -67.5q-271 0 -442 162.5t-171 425.5zM236 580q0 -215 137.5 -348.5t357.5 -133.5q154 0 290.5 55.5t235 152.5t156 235.5 t57.5 296.5q0 237 -132 363t-369 126q-163 0 -302 -59.5t-232.5 -161.5t-146 -238t-52.5 -288zM516 547q0 52 27 190q42 215 139 307q89 86 250 86q121 0 209 -63q23 -17 4 -43l-29 -41q-17 -26 -37 -10q-73 49 -155 49q-105 1 -162.5 -70t-89.5 -229q-23 -115 -23 -154 q0 -56 23 -100q37 -66 143 -66q75 0 166 33q32 11 35 -10l6 -55q3 -14 -4.5 -22t-30.5 -17q-100 -39 -196 -39q-156 0 -218 72q-57 60 -57 182z" />
<glyph unicode="&#xaa;" horiz-adv-x="634" d="M111 715q0 25 10 80q10 54 26.5 85t45.5 54q56 43 180 43h69q32 0 78 -4l10 53q5 35 5 37q0 30 -15 45q-25 25 -104 25q-60 0 -146 -21q-25 -6 -28 14l-9 45q-3 23 25 29q91 25 182 25q126 0 174 -37q35 -26 35 -82q0 -32 -8 -72l-78 -411q-4 -15 -18 -15h-68q-9 0 -13 4 t-3 11l4 49q-52 -74 -162 -74h-43q-78 0 -113.5 29.5t-35.5 87.5zM227 741q0 -26 14.5 -37.5t47.5 -11.5h47q59 0 100 35t53 94l13 58q-36 4 -60 4h-92q-56 0 -78 -15q-23 -14 -36 -71q-1 -9 -3.5 -22.5t-4 -21.5t-1.5 -12z" />
<glyph unicode="&#xab;" horiz-adv-x="999" d="M-43 449q0 14 10 47q8 24 35 43l332 235q26 17 43 0l37 -43q22 -22 -4 -41l-291 -229l188 -207q22 -24 2 -41l-43 -35q-19 -17 -49 10l-242 228q-18 18 -18 33zM365 449q0 14 10 47q8 24 35 43l331 235q26 17 43 0l37 -43q22 -22 -4 -41l-291 -229l189 -207q22 -24 2 -41 l-43 -35q-19 -17 -49 10l-242 228q-18 18 -18 33z" />
<glyph unicode="&#xac;" d="M66 508l12 72q6 30 39 30h837q18 0 24 -6.5t3 -23.5l-86 -461q-6 -31 -39 -31h-72q-29 0 -22 31l69 358h-739q-32 0 -26 31z" />
<glyph unicode="&#xad;" horiz-adv-x="608" d="M66 496l14 75q7 31 37 31h395q32 0 25 -31l-15 -79q-6 -27 -37 -27h-395q-18 0 -22.5 7.5t-1.5 23.5z" />
<glyph unicode="&#xae;" horiz-adv-x="1656" d="M96 559q0 193 68 359.5t187 284t286.5 184.5t359.5 67q179 0 318 -69t218 -203t79 -314q0 -192 -66.5 -358.5t-184 -285t-286.5 -186t-366 -67.5q-271 0 -442 162.5t-171 425.5zM236 580q0 -215 137.5 -348.5t357.5 -133.5q154 0 290.5 55.5t235 152.5t156 235.5 t57.5 296.5q0 237 -132 363t-369 126q-163 0 -302 -59.5t-232.5 -161.5t-146 -238t-52.5 -288zM528 322l150 772q3 18 16 29.5t31 13.5q79 10 186 10q56 0 102 -9t85 -29t60.5 -56.5t21.5 -87.5q0 -54 -11 -107q-18 -83 -75 -137t-140 -72l113 -323q2 -10 -4 -17.5t-19 -7.5 h-90q-16 0 -24 21l-101 313h-10q-71 0 -106 2l-62 -315q-3 -21 -22 -21h-86q-18 0 -15 21zM735 745q43 -6 94 -6q99 0 149 35.5t64 108.5q5 25 5 59q0 51 -34 75.5t-108 24.5q-46 0 -92 -4q-23 -3 -29 -28z" />
<glyph unicode="&#xaf;" horiz-adv-x="694" d="M229 1292l15 68q3 31 35 31h460q17 0 23.5 -7t3.5 -24l-16 -72q-5 -26 -35 -26h-463q-30 0 -23 30z" />
<glyph unicode="&#xb0;" horiz-adv-x="657" d="M207 1186q0 122 80.5 205.5t204.5 83.5q92 0 150 -54.5t58 -146.5q0 -122 -80 -205.5t-204 -83.5q-92 0 -150.5 54.5t-58.5 146.5zM328 1204q0 -55 28 -84.5t76 -29.5q64 0 106 47t42 118q0 48 -29.5 81.5t-75.5 33.5q-64 0 -105.5 -47.5t-41.5 -118.5z" />
<glyph unicode="&#xb1;" d="M-29 31l11 59q3 17 11 24t27 7h842q29 0 23 -31l-11 -63q-3 -15 -10 -21t-24 -6h-842q-19 0 -24.5 7t-2.5 24zM106 717l13 71q6 31 37 31h354l68 344q5 31 36 31h68q19 0 25.5 -7t3.5 -24l-68 -344h354q17 0 22.5 -7t2.5 -24l-12 -75q-3 -15 -11 -21t-26 -6h-355 l-67 -344q-3 -18 -11 -24.5t-24 -6.5h-76q-28 0 -22 31l67 344h-354q-30 0 -25 31z" />
<glyph unicode="&#xb2;" horiz-adv-x="684" d="M178 944l10 57q20 111 63.5 168.5t135.5 92.5l109 41q65 25 91.5 53.5t26.5 87.5q0 39 -27 57.5t-91 18.5q-66 0 -134 -21q-24 -8 -30 17l-10 55q-3 18 20 26q86 27 180 27q103 0 162 -40t59 -122q0 -48 -12 -88q-17 -58 -55.5 -93t-118.5 -64l-100 -37 q-67 -25 -98.5 -58.5t-41.5 -95.5l-2 -12h318q19 0 16 -17l-12 -63q-3 -19 -23 -19h-409q-18 0 -24 7t-3 22z" />
<glyph unicode="&#xb3;" horiz-adv-x="684" d="M203 965l20 51q8 22 31 14q71 -29 147 -29q130 0 152 93q8 32 8 51q0 41 -34 59.5t-107 18.5h-47q-18 0 -15 18l11 59q3 19 22 19h39q155 0 178 86q8 27 8 55q0 64 -104 64q-57 0 -125 -21q-26 -7 -29 17l-8 53q-3 23 23 29q77 22 174 22q193 0 196 -139q0 -37 -8 -76 q-24 -104 -131 -137v-6q82 -28 82 -117q0 -36 -10 -74q-25 -99 -92.5 -136.5t-184.5 -37.5q-104 0 -190 35q-14 7 -6 29z" />
<glyph unicode="&#xb4;" horiz-adv-x="630" d="M225 1251q-13 30 17 43l383 170q20 10 32 7t19 -21l26 -72q6 -17 -1.5 -26.5t-34.5 -18.5l-381 -135q-33 -11 -43 14z" />
<glyph unicode="&#xb6;" horiz-adv-x="1136" d="M174 967q0 200 133.5 322t335.5 122h582q17 0 21 -7t1 -24l-10 -59q-3 -31 -37 -31h-129l-289 -1497q-4 -20 -14.5 -26.5t-32.5 -6.5h-49q-38 0 -31 33l289 1497h-213l-289 -1497q-3 -17 -13.5 -25t-35.5 -8h-65q-33 0 -27 33l168 879q-133 0 -214 83.5t-81 211.5z" />
<glyph unicode="&#xb7;" horiz-adv-x="401" d="M2 545q0 29 10 78q7 39 34.5 59t68.5 20h20q36 0 56 -15t20 -42q0 -23 -10 -72q-15 -79 -105 -79h-20q-34 0 -54 14t-20 37z" />
<glyph unicode="&#xb8;" horiz-adv-x="552" d="M-117 -418l15 41q8 23 30 17q73 -25 133 -25q62 0 91 16q33 19 43 56q4 16 4 41q0 31 -16.5 44t-53.5 13q-45 0 -100 -10q-14 -3 -27 10l-14 18q-12 12 0 33l71 144q10 20 31 20h60q30 0 18 -23l-55 -108q30 6 75 6q55 0 89 -31t34 -90q0 -35 -6 -65q-9 -44 -26.5 -72.5 t-53.5 -52.5q-53 -37 -166 -37q-81 0 -165 31q-17 7 -11 24z" />
<glyph unicode="&#xb9;" horiz-adv-x="684" d="M176 938l10 55q3 21 27 21h160l92 487h-8l-158 -90q-15 -9 -27 8l-30 47q-12 18 8 29l186 107q31 16 70 16h72q21 0 27 -5t3 -22l-110 -577h159q22 0 19 -23l-8 -55q-3 -21 -27 -21h-446q-22 0 -19 23z" />
<glyph unicode="&#xba;" horiz-adv-x="671" d="M137 776q0 39 21 160q34 171 104 233q65 56 197 56q110 0 163.5 -41t53.5 -135q0 -41 -21 -162q-29 -168 -104 -234q-63 -55 -197 -55q-112 0 -164.5 41.5t-52.5 136.5zM254 795q0 -59 24.5 -83t83.5 -24q78 0 113 35q40 40 68 180q16 76 16 125q0 59 -25 83t-83 24 q-78 0 -113 -35q-45 -45 -70 -185q-14 -80 -14 -120z" />
<glyph unicode="&#xbb;" horiz-adv-x="999" d="M113 219q-22 22 4 41l291 229l-189 207q-22 24 -2 41l43 35q19 17 49 -10l242 -227q18 -18 18 -33q0 -14 -10 -47q-8 -24 -35 -43l-331 -236q-26 -17 -43 0zM520 219q-22 22 4 41l291 229l-188 207q-22 24 -2 41l43 35q19 17 49 -10l241 -227q19 -19 19 -33t-10 -47 q-8 -24 -35 -43l-332 -236q-26 -17 -43 0z" />
<glyph unicode="&#xbc;" horiz-adv-x="1605" d="M86 643l10 55q3 21 27 21h160l92 487h-8l-158 -90q-15 -9 -27 8l-30 47q-12 18 8 29l186 107q31 16 70 16h71q21 0 27.5 -5t3.5 -22l-110 -577h159q22 0 19 -23l-8 -55q-3 -20 -27 -20h-447q-21 0 -18 22zM296.5 -8.5q-3.5 9.5 8.5 24.5l969 1303q19 24 47 24h72 q15 0 18 -10.5t-8 -23.5l-971 -1303q-19 -24 -45 -24h-72q-15 0 -18.5 9.5zM901 195l12 53q3 16 29 45l303 358q37 45 86 45h88q41 0 35 -37l-76 -387h76q17 0 14 -18l-12 -59q-4 -21 -22 -21h-74l-29 -156q-3 -18 -20 -18h-88q-20 0 -17 18l31 156h-313q-14 0 -20 5.5 t-3 15.5zM1044 272h211l64 322h-4z" />
<glyph unicode="&#xbd;" horiz-adv-x="1605" d="M86 643l10 55q3 21 27 21h160l92 487h-8l-158 -90q-15 -9 -27 8l-30 47q-12 18 8 29l186 107q31 16 70 16h71q21 0 27.5 -5t3.5 -22l-110 -577h159q22 0 19 -23l-8 -55q-3 -20 -27 -20h-447q-21 0 -18 22zM296.5 -8.5q-3.5 9.5 8.5 24.5l969 1303q19 24 47 24h72 q15 0 18 -10.5t-8 -23.5l-971 -1303q-19 -24 -45 -24h-72q-15 0 -18.5 9.5zM952 29l11 57q20 111 63 168t135 92l109 41q66 25 92.5 53.5t26.5 87.5q0 39 -27.5 57.5t-91.5 18.5q-68 0 -133 -20q-25 -8 -31 16l-10 55q-3 19 20 27q86 27 180 27q103 0 162.5 -40t59.5 -122 q0 -44 -13 -88q-17 -59 -56 -94t-118 -64l-100 -37q-67 -25 -98 -58t-41 -95l-2 -13h317q19 0 16 -16l-12 -64q-3 -18 -22 -18h-410q-18 0 -24 7t-3 22z" />
<glyph unicode="&#xbe;" horiz-adv-x="1605" d="M96 684l21 51q8 22 30 15q71 -29 148 -29q129 0 151 92q9 36 9 51q0 41 -34.5 59.5t-107.5 18.5h-47q-17 0 -14 19l10 59q3 18 23 18h39q155 0 178 86q8 27 8 56q0 63 -104 63q-60 0 -125 -20q-26 -7 -29 16l-8 53q-3 23 22 29q77 22 174 22q194 0 197 -139q0 -37 -8 -76 q-24 -104 -131 -137v-6q82 -28 82 -117q0 -31 -11 -73q-25 -99 -92 -136.5t-184 -37.5q-108 0 -191 34q-14 7 -6 29zM296.5 -8.5q-3.5 9.5 8.5 24.5l969 1303q19 24 47 24h72q15 0 18 -10.5t-8 -23.5l-971 -1303q-19 -24 -45 -24h-72q-15 0 -18.5 9.5zM901 195l12 53 q3 16 29 45l303 358q37 45 86 45h88q41 0 35 -37l-76 -387h76q17 0 14 -18l-12 -59q-4 -21 -22 -21h-74l-29 -156q-3 -18 -20 -18h-88q-20 0 -17 18l31 156h-313q-14 0 -20 5.5t-3 15.5zM1044 272h211l64 322h-4z" />
<glyph unicode="&#xbf;" horiz-adv-x="913" d="M72 -86q0 97 29 165.5t88.5 122t168.5 115.5l127 72q78 44 108.5 100t49.5 187q3 33 43 33h68q23 0 20 -33q-10 -71 -22 -120t-33.5 -99t-55.5 -87.5t-83 -66.5l-140 -76q-119 -64 -170 -129t-51 -164q0 -83 54 -119t167 -36q127 0 279 51q31 9 37 -16l14 -62 q6 -25 -20 -35q-160 -57 -326 -57q-171 0 -261.5 66t-90.5 188zM649 879q0 9 10 63q7 39 34.5 59.5t68.5 20.5h20q33 0 52.5 -15t19.5 -44q0 -12 -10 -66q-7 -37 -35.5 -58.5t-67.5 -21.5h-20q-72 0 -72 62z" />
<glyph unicode="&#xc0;" horiz-adv-x="1144" d="M-14 39q162 364 440 915q104 201 170 314q20 33 40.5 45t53.5 12h74q30 0 46.5 -15t23.5 -50q28 -144 49 -306q55 -422 90 -915q1 -19 -10 -29t-27 -10h-72q-38 0 -41 33q-7 151 -26 387h-490q-107 -232 -176 -387q-14 -33 -49 -33h-72q-16 0 -23.5 10t-0.5 29zM362 537 h426q-9 133 -34 368q-18 159 -39 287h-25q-83 -148 -151 -287q-21 -44 -57.5 -118.5t-66 -135t-53.5 -114.5zM451 1620l22 63q7 18 19 21t32 -6l387 -172q27 -12 15 -37l-21 -47q-8 -21 -41 -10l-391 139q-34 12 -22 49z" />
<glyph unicode="&#xc1;" horiz-adv-x="1144" d="M-14 39q162 364 440 915q104 201 170 314q20 33 40.5 45t53.5 12h74q30 0 46.5 -15t23.5 -50q28 -144 49 -306q55 -422 90 -915q1 -19 -10 -29t-27 -10h-72q-38 0 -41 33q-7 151 -26 387h-490q-107 -232 -176 -387q-14 -33 -49 -33h-72q-16 0 -23.5 10t-0.5 29zM362 537 h426q-9 133 -34 368q-18 159 -39 287h-25q-83 -148 -151 -287q-21 -44 -57.5 -118.5t-66 -135t-53.5 -114.5zM588 1485q-13 30 16 43l383 170q14 6 23 7t16 -4.5t12 -17.5l27 -71q6 -17 -1.5 -26.5t-35.5 -18.5l-381 -135q-33 -11 -43 14z" />
<glyph unicode="&#xc2;" horiz-adv-x="1144" d="M-14 39q162 364 440 915q104 201 170 314q20 33 40.5 45t53.5 12h74q30 0 46.5 -15t23.5 -50q28 -144 49 -306q55 -422 90 -915q1 -19 -10 -29t-27 -10h-72q-38 0 -41 33q-7 151 -26 387h-490q-107 -232 -176 -387q-14 -33 -49 -33h-72q-16 0 -23.5 10t-0.5 29zM362 537 h426q-9 133 -34 368q-18 159 -39 287h-25q-83 -148 -151 -287q-21 -44 -57.5 -118.5t-66 -135t-53.5 -114.5zM443.5 1477.5q1.5 11.5 13.5 21.5l264 225q17 17 41 17h63q21 0 33 -17l172 -227q16 -22 -8 -41l-41 -31q-28 -17 -45 5l-154 172h-10l-229 -177q-23 -20 -45 -4 l-47 39q-9 6 -7.5 17.5z" />
<glyph unicode="&#xc3;" horiz-adv-x="1144" d="M-14 39q162 364 440 915q104 201 170 314q20 33 40.5 45t53.5 12h74q30 0 46.5 -15t23.5 -50q28 -144 49 -306q55 -422 90 -915q1 -19 -10 -29t-27 -10h-72q-38 0 -41 33q-7 151 -26 387h-490q-107 -232 -176 -387q-14 -33 -49 -33h-72q-16 0 -23.5 10t-0.5 29zM362 537 h426q-9 133 -34 368q-18 159 -39 287h-25q-83 -148 -151 -287q-21 -44 -57.5 -118.5t-66 -135t-53.5 -114.5zM438 1536q113 158 230 158q37 0 61 -9t53 -32l52 -41q25 -20 37 -26.5t30 -6.5q24 0 52 21.5t73 70.5q20 24 41 6l35 -28q20 -15 0 -41q-112 -154 -234 -154 q-62 0 -110 39l-51 41q-41 33 -60 33q-31 0 -58.5 -18.5t-70.5 -71.5q-20 -26 -45 -7l-33 25q-20 15 -2 41z" />
<glyph unicode="&#xc4;" horiz-adv-x="1144" d="M-14 39q162 364 440 915q104 201 170 314q20 33 40.5 45t53.5 12h74q30 0 46.5 -15t23.5 -50q28 -144 49 -306q55 -422 90 -915q1 -19 -10 -29t-27 -10h-72q-38 0 -41 33q-7 151 -26 387h-490q-107 -232 -176 -387q-14 -33 -49 -33h-72q-16 0 -23.5 10t-0.5 29zM362 537 h426q-9 133 -34 368q-18 159 -39 287h-25q-83 -148 -151 -287q-21 -44 -57.5 -118.5t-66 -135t-53.5 -114.5zM498 1536q0 15 10 70q7 38 35 59t67 21h21q36 0 56 -15.5t20 -44.5q0 -17 -11 -67q-7 -39 -35.5 -59.5t-70.5 -20.5h-21q-71 0 -71 57zM829 1536q0 2 11 70 q6 38 33 59t69 21h21q75 0 75 -60q0 -18 -10 -67q-7 -39 -35.5 -59.5t-70.5 -20.5h-21q-72 0 -72 57z" />
<glyph unicode="&#xc5;" horiz-adv-x="1144" d="M-14 39q162 364 440 915q104 201 170 314q20 33 40.5 45t53.5 12h74q30 0 46.5 -15t23.5 -50q28 -144 49 -306q55 -422 90 -915q1 -19 -10 -29t-27 -10h-72q-38 0 -41 33q-7 151 -26 387h-490q-107 -232 -176 -387q-14 -33 -49 -33h-72q-16 0 -23.5 10t-0.5 29zM362 537 h426q-9 133 -34 368q-18 159 -39 287h-25q-83 -148 -151 -287q-21 -44 -57.5 -118.5t-66 -135t-53.5 -114.5zM575 1548q0 94 65 154.5t159 60.5q70 0 113.5 -42.5t43.5 -108.5q0 -98 -63.5 -159.5t-157.5 -61.5q-73 0 -116.5 43t-43.5 114zM674 1556q0 -31 20 -50t54 -19 q47 0 78.5 31.5t31.5 74.5q0 32 -21 53t-55 21q-47 0 -77.5 -31.5t-30.5 -79.5z" />
<glyph unicode="&#xc6;" horiz-adv-x="1677" d="M-16.5 10q-5.5 10 6.5 29q443 664 841 1198q35 46 75 67t102 21h673q18 0 23 -7.5t2 -23.5l-12 -59q-7 -31 -37 -31h-559l-88 -459h495q19 0 25.5 -6.5t3.5 -23.5l-12 -60q-6 -30 -41 -30h-496l-78 -400q-11 -58 11 -84q17 -20 79 -20h461q15 0 20.5 -7t2.5 -24l-11 -59 q-3 -17 -11 -24t-27 -7h-467q-122 0 -170 45q-54 54 -31 174l39 195h-414l-252 -381q-18 -33 -49 -33h-80q-19 0 -24.5 10zM475 537h352l129 667h-10q-295 -408 -471 -667z" />
<glyph unicode="&#xc7;" horiz-adv-x="1036" d="M104 350q0 82 66 449q28 156 73 261t113.5 167.5t154 89t202.5 26.5q180 0 331 -86q25 -14 9 -40l-31 -54q-9 -14 -19.5 -15t-27.5 9q-129 66 -262 66q-154 0 -232 -66q-66 -56 -104.5 -149.5t-71.5 -282.5q-51 -281 -51 -356q0 -90 12.5 -133t46.5 -76q66 -60 224 -60 q138 0 280 56q33 13 41 -15l14 -53q9 -30 -18 -41q-154 -57 -291 -63q0 -1 -1 -3.5t-1 -3.5l-55 -108q30 6 76 6q55 0 89 -31t34 -90q0 -30 -7 -65q-9 -44 -26.5 -72.5t-53.5 -52.5q-53 -37 -165 -37q-82 0 -166 31q-17 7 -11 24l15 41q8 24 31 17q73 -25 133 -25 q61 0 90 16q33 19 43 56q4 16 4 41q0 31 -16.5 44t-53.5 13q-45 0 -100 -10q-14 -3 -27 10l-14 18q-12 12 0 33l72 144v4q-182 9 -265.5 91t-83.5 275z" />
<glyph unicode="&#xc8;" horiz-adv-x="974" d="M78 162q0 57 31 235q67 379 147 719q26 116 94 166q61 43 191 43h438q18 0 23 -7.5t2 -23.5l-13 -59q-7 -31 -37 -31h-428q-59 0 -88 -20q-25 -20 -41 -84q-36 -140 -80 -355h500q18 0 23 -7t2 -23l-13 -60q-3 -15 -11 -22.5t-25 -7.5h-500q-52 -261 -66 -365 q-6 -50 -6 -80q2 -31 23.5 -45t68.5 -14h465q30 0 23 -31l-10 -59q-3 -17 -10 -24t-25 -7h-475q-104 0 -153.5 35.5t-49.5 126.5zM438 1620l23 63q7 18 19 21t32 -6l387 -172q27 -12 14 -37l-20 -47q-8 -21 -41 -10l-391 139q-35 13 -23 49z" />
<glyph unicode="&#xc9;" horiz-adv-x="974" d="M78 162q0 57 31 235q67 379 147 719q26 116 94 166q61 43 191 43h438q18 0 23 -7.5t2 -23.5l-13 -59q-7 -31 -37 -31h-428q-59 0 -88 -20q-25 -20 -41 -84q-36 -140 -80 -355h500q18 0 23 -7t2 -23l-13 -60q-3 -15 -11 -22.5t-25 -7.5h-500q-52 -261 -66 -365 q-6 -50 -6 -80q2 -31 23.5 -45t68.5 -14h465q30 0 23 -31l-10 -59q-3 -17 -10 -24t-25 -7h-475q-104 0 -153.5 35.5t-49.5 126.5zM553 1485q-13 30 16 43l383 170q20 10 32.5 6.5t19.5 -21.5l26 -71q6 -17 -1.5 -26.5t-35.5 -18.5l-381 -135q-33 -11 -43 14z" />
<glyph unicode="&#xca;" horiz-adv-x="974" d="M78 162q0 57 31 235q67 379 147 719q26 116 94 166q61 43 191 43h438q18 0 23 -7.5t2 -23.5l-13 -59q-7 -31 -37 -31h-428q-59 0 -88 -20q-25 -20 -41 -84q-36 -140 -80 -355h500q18 0 23 -7t2 -23l-13 -60q-3 -15 -11 -22.5t-25 -7.5h-500q-52 -261 -66 -365 q-6 -50 -6 -80q2 -31 23.5 -45t68.5 -14h465q30 0 23 -31l-10 -59q-3 -17 -10 -24t-25 -7h-475q-104 0 -153.5 35.5t-49.5 126.5zM437 1477.5q2 11.5 14 21.5l264 225q17 17 41 17h63q21 0 33 -17l172 -227q16 -22 -8 -41l-41 -31q-28 -17 -45 5l-154 172h-10l-229 -177 q-23 -20 -45 -4l-48 39q-9 6 -7 17.5z" />
<glyph unicode="&#xcb;" horiz-adv-x="974" d="M78 162q0 57 31 235q67 379 147 719q26 116 94 166q61 43 191 43h438q18 0 23 -7.5t2 -23.5l-13 -59q-7 -31 -37 -31h-428q-59 0 -88 -20q-25 -20 -41 -84q-36 -140 -80 -355h500q18 0 23 -7t2 -23l-13 -60q-3 -15 -11 -22.5t-25 -7.5h-500q-52 -261 -66 -365 q-6 -50 -6 -80q2 -31 23.5 -45t68.5 -14h465q30 0 23 -31l-10 -59q-3 -17 -10 -24t-25 -7h-475q-104 0 -153.5 35.5t-49.5 126.5zM479 1536q0 15 10 70q7 37 35.5 58.5t67.5 21.5h20q36 0 56 -15.5t20 -44.5q0 -21 -10 -67q-7 -39 -36 -59.5t-71 -20.5h-20q-72 0 -72 57z M811 1536q0 8 10 70q6 38 33.5 59t69.5 21h20q36 0 56 -15.5t20 -44.5q0 -18 -10 -67q-7 -39 -36 -59.5t-71 -20.5h-20q-72 0 -72 57z" />
<glyph unicode="&#xcc;" horiz-adv-x="460" d="M59 35l244 1255q8 35 37 35h80q18 0 23 -11.5t1 -23.5l-243 -1255q-6 -35 -37 -35h-80q-31 0 -25 35zM59 1620l23 63q7 18 19 21t32 -6l387 -172q27 -12 15 -37l-21 -47q-8 -21 -41 -10l-391 139q-35 13 -23 49z" />
<glyph unicode="&#xcd;" horiz-adv-x="460" d="M59 35l244 1255q8 35 37 35h80q18 0 23 -11.5t1 -23.5l-243 -1255q-6 -35 -37 -35h-80q-31 0 -25 35zM276 1485q-13 30 17 43l383 170q14 6 23 7t16 -4.5t12 -17.5l27 -71q6 -17 -1.5 -26.5t-35.5 -18.5l-381 -135q-33 -11 -43 14z" />
<glyph unicode="&#xce;" horiz-adv-x="460" d="M59 35l244 1255q8 35 37 35h80q18 0 23 -11.5t1 -23.5l-243 -1255q-6 -35 -37 -35h-80q-31 0 -25 35zM95 1477.5q2 11.5 14 21.5l264 225q17 17 41 17h63q21 0 33 -17l172 -227q16 -22 -8 -41l-41 -31q-28 -17 -45 5l-154 172h-10l-229 -177q-23 -20 -45 -4l-48 39 q-9 6 -7 17.5z" />
<glyph unicode="&#xcf;" horiz-adv-x="460" d="M59 35l244 1255q8 35 37 35h80q18 0 23 -11.5t1 -23.5l-243 -1255q-6 -35 -37 -35h-80q-31 0 -25 35zM156 1536q0 15 10 70q7 38 35 59t67 21h21q36 0 56 -15.5t20 -44.5q0 -17 -11 -67q-7 -39 -35.5 -59.5t-70.5 -20.5h-21q-71 0 -71 57zM487 1536q0 2 11 70q6 38 33 59 t69 21h21q75 0 75 -60q0 -18 -10 -67q-7 -39 -35.5 -59.5t-70.5 -20.5h-21q-72 0 -72 57z" />
<glyph unicode="&#xd0;" horiz-adv-x="1187" d="M12 653l11 58q3 15 11 22.5t25 7.5h125l103 527q5 25 14 35.5t33 13.5q119 18 278 18q263 0 387.5 -95t124.5 -314q0 -159 -55 -387q-31 -130 -83 -225.5t-118.5 -155.5t-159 -95.5t-191.5 -49t-228 -13.5h-195q-31 0 -41 11.5t-4 39.5l111 572h-123q-18 0 -23 7t-2 23z M209 143q-6 -26 20 -26h109q252 0 391 101t197 333q55 218 55 358q0 175 -85 242.5t-286 67.5q-96 0 -168 -7q-25 -3 -30 -30l-86 -441h270q32 0 25 -30l-13 -62q-4 -26 -35 -26h-272z" />
<glyph unicode="&#xd1;" horiz-adv-x="1236" d="M45 35l240 1235q6 33 21 44t54 11h93q37 0 54.5 -11.5t27.5 -45.5l329 -1135h15l221 1153q8 35 37 35h69q31 0 25 -35l-238 -1231q-6 -31 -24.5 -43t-55.5 -12h-90q-38 0 -54.5 10.5t-25.5 42.5l-327 1135h-15l-225 -1153q-6 -35 -39 -35h-69q-29 0 -23 35zM485 1536 q113 158 230 158q37 0 61 -9t53 -32l52 -41q25 -20 37 -26.5t30 -6.5q24 0 52 21.5t73 70.5q20 24 41 6l35 -28q20 -15 0 -41q-112 -154 -234 -154q-62 0 -110 39l-51 41q-41 33 -60 33q-31 0 -58.5 -18.5t-70.5 -71.5q-20 -26 -45 -7l-33 25q-20 15 -2 41z" />
<glyph unicode="&#xd2;" horiz-adv-x="1200" d="M104 350q0 23 1.5 49t3.5 47t6 50t6.5 46t8 48.5t8 43t9 44.5t7.5 39q42 208 93 326t142 196q121 104 344 104q194 0 299 -85.5t105 -282.5q0 -145 -50 -367q-75 -346 -204 -486t-375 -140q-203 0 -303.5 82t-100.5 286zM254 373q0 -74 11 -121.5t39.5 -83t79.5 -51 t130 -15.5q93 0 160 30.5t117.5 99t85.5 163.5t67 240q43 189 43 317q0 141 -57.5 206t-202.5 65q-83 0 -140 -20t-104 -62q-71 -64 -108.5 -163t-77.5 -288q-43 -214 -43 -317zM518 1620l23 63q7 18 19 21t32 -6l387 -172q27 -12 14 -37l-20 -47q-8 -21 -41 -10l-391 139 q-35 13 -23 49z" />
<glyph unicode="&#xd3;" horiz-adv-x="1200" d="M104 350q0 23 1.5 49t3.5 47t6 50t6.5 46t8 48.5t8 43t9 44.5t7.5 39q42 208 93 326t142 196q121 104 344 104q194 0 299 -85.5t105 -282.5q0 -145 -50 -367q-75 -346 -204 -486t-375 -140q-203 0 -303.5 82t-100.5 286zM254 373q0 -74 11 -121.5t39.5 -83t79.5 -51 t130 -15.5q93 0 160 30.5t117.5 99t85.5 163.5t67 240q43 189 43 317q0 141 -57.5 206t-202.5 65q-83 0 -140 -20t-104 -62q-71 -64 -108.5 -163t-77.5 -288q-43 -214 -43 -317zM639 1485q-13 30 16 43l383 170q20 10 32.5 6.5t19.5 -21.5l26 -71q6 -17 -1.5 -26.5 t-35.5 -18.5l-381 -135q-33 -11 -43 14z" />
<glyph unicode="&#xd4;" horiz-adv-x="1200" d="M104 350q0 23 1.5 49t3.5 47t6 50t6.5 46t8 48.5t8 43t9 44.5t7.5 39q42 208 93 326t142 196q121 104 344 104q194 0 299 -85.5t105 -282.5q0 -145 -50 -367q-75 -346 -204 -486t-375 -140q-203 0 -303.5 82t-100.5 286zM254 373q0 -74 11 -121.5t39.5 -83t79.5 -51 t130 -15.5q93 0 160 30.5t117.5 99t85.5 163.5t67 240q43 189 43 317q0 141 -57.5 206t-202.5 65q-83 0 -140 -20t-104 -62q-71 -64 -108.5 -163t-77.5 -288q-43 -214 -43 -317zM506.5 1477.5q1.5 11.5 13.5 21.5l264 225q17 17 41 17h64q21 0 33 -17l172 -227 q16 -22 -9 -41l-41 -31q-28 -17 -45 5l-153 172h-10l-230 -177q-23 -20 -45 -4l-47 39q-9 6 -7.5 17.5z" />
<glyph unicode="&#xd5;" horiz-adv-x="1200" d="M104 350q0 23 1.5 49t3.5 47t6 50t6.5 46t8 48.5t8 43t9 44.5t7.5 39q42 208 93 326t142 196q121 104 344 104q194 0 299 -85.5t105 -282.5q0 -145 -50 -367q-75 -346 -204 -486t-375 -140q-203 0 -303.5 82t-100.5 286zM254 373q0 -74 11 -121.5t39.5 -83t79.5 -51 t130 -15.5q93 0 160 30.5t117.5 99t85.5 163.5t67 240q43 189 43 317q0 141 -57.5 206t-202.5 65q-83 0 -140 -20t-104 -62q-71 -64 -108.5 -163t-77.5 -288q-43 -214 -43 -317zM496 1536q113 158 229 158q37 0 61.5 -9t53.5 -32l51 -41q25 -20 37 -26.5t30 -6.5 q24 0 52 21.5t73 70.5q20 24 41 6l35 -28q20 -15 0 -41q-112 -154 -233 -154q-63 0 -111 39l-51 41q-2 2 -7.5 6.5t-7.5 6t-6.5 5t-6.5 4.5t-6 3.5t-6.5 3.5t-6 2t-6.5 1.5t-6 0.5q-32 0 -59.5 -18.5t-70.5 -71.5q-20 -26 -45 -7l-32 25q-20 15 -2 41z" />
<glyph unicode="&#xd6;" horiz-adv-x="1200" d="M104 350q0 23 1.5 49t3.5 47t6 50t6.5 46t8 48.5t8 43t9 44.5t7.5 39q42 208 93 326t142 196q121 104 344 104q194 0 299 -85.5t105 -282.5q0 -145 -50 -367q-75 -346 -204 -486t-375 -140q-203 0 -303.5 82t-100.5 286zM254 373q0 -74 11 -121.5t39.5 -83t79.5 -51 t130 -15.5q93 0 160 30.5t117.5 99t85.5 163.5t67 240q43 189 43 317q0 141 -57.5 206t-202.5 65q-83 0 -140 -20t-104 -62q-71 -64 -108.5 -163t-77.5 -288q-43 -214 -43 -317zM551 1536q0 15 10 70q7 37 35.5 58.5t67.5 21.5h20q36 0 56 -15.5t20 -44.5q0 -21 -10 -67 q-7 -39 -36 -59.5t-71 -20.5h-20q-72 0 -72 57zM883 1536q0 8 10 70q6 38 33 59t69 21h21q36 0 56 -15.5t20 -44.5q0 -13 -11 -67q-7 -39 -35.5 -59.5t-70.5 -20.5h-21q-71 0 -71 57z" />
<glyph unicode="&#xd7;" d="M109 219q-16 22 4 39l325 274l-213 261q-17 23 11 45l59 49q28 21 43 0l211 -262l315 264q25 18 43 -4l41 -47q19 -19 -4 -39l-317 -267l217 -264q20 -23 -2 -45l-62 -53q-25 -23 -41 -4l-225 272l-321 -270q-26 -23 -46 2z" />
<glyph unicode="&#xd8;" horiz-adv-x="1200" d="M84 -102l111 174q-91 88 -91 278q0 23 1.5 49t3.5 47t6 50t6.5 46t8 48.5t8 43t9 44.5t7.5 39q42 208 93 326t142 196q121 104 344 104q145 0 236 -45l114 179q14 22 37 10l41 -23q21 -12 8 -32l-120 -191q88 -91 88 -266q0 -145 -50 -367q-75 -346 -204 -486t-375 -140 q-146 0 -232 38l-106 -167q-15 -22 -37 -11l-41 23q-21 12 -8 33zM254 373q0 -108 25 -168l618 979q-56 39 -170 39q-83 0 -140 -20t-104 -62q-71 -64 -109.5 -165t-76.5 -286q-43 -201 -43 -317zM348 133q60 -31 166 -31q93 0 160 30.5t117.5 99t85.5 163.5t67 240 q43 189 43 317q0 90 -24 152z" />
<glyph unicode="&#xd9;" horiz-adv-x="1198" d="M109 293q0 68 14 137l166 860q9 35 37 35h80q33 0 24 -35l-164 -846q-16 -91 -16 -141q0 -201 266 -201q88 0 147 17t105 57q48 43 75 100.5t48 167.5l164 846q9 35 37 35h79q34 0 25 -35l-166 -860q-25 -129 -64.5 -214t-101.5 -136q-114 -98 -368 -98 q-83 0 -149.5 15.5t-121.5 50t-85.5 97t-30.5 148.5zM477 1620l23 63q7 18 19 21t32 -6l387 -172q27 -12 14 -37l-20 -47q-8 -21 -41 -10l-391 139q-35 13 -23 49z" />
<glyph unicode="&#xda;" horiz-adv-x="1198" d="M109 293q0 68 14 137l166 860q9 35 37 35h80q33 0 24 -35l-164 -846q-16 -91 -16 -141q0 -201 266 -201q88 0 147 17t105 57q48 43 75 100.5t48 167.5l164 846q9 35 37 35h79q34 0 25 -35l-166 -860q-25 -129 -64.5 -214t-101.5 -136q-114 -98 -368 -98 q-83 0 -149.5 15.5t-121.5 50t-85.5 97t-30.5 148.5zM571 1485q-13 30 17 43l383 170q14 6 23 7t16 -4.5t12 -17.5l27 -71q6 -17 -1.5 -26.5t-35.5 -18.5l-381 -135q-33 -11 -43 14z" />
<glyph unicode="&#xdb;" horiz-adv-x="1198" d="M109 293q0 68 14 137l166 860q9 35 37 35h80q33 0 24 -35l-164 -846q-16 -91 -16 -141q0 -201 266 -201q88 0 147 17t105 57q48 43 75 100.5t48 167.5l164 846q9 35 37 35h79q34 0 25 -35l-166 -860q-25 -129 -64.5 -214t-101.5 -136q-114 -98 -368 -98 q-83 0 -149.5 15.5t-121.5 50t-85.5 97t-30.5 148.5zM473.5 1477.5q1.5 11.5 13.5 21.5l265 225q17 17 41 17h63q21 0 33 -17l172 -227q16 -22 -8 -41l-41 -31q-28 -17 -45 5l-154 172h-10l-230 -177q-23 -20 -45 -4l-47 39q-9 6 -7.5 17.5z" />
<glyph unicode="&#xdc;" horiz-adv-x="1198" d="M109 293q0 68 14 137l166 860q9 35 37 35h80q33 0 24 -35l-164 -846q-16 -91 -16 -141q0 -201 266 -201q88 0 147 17t105 57q48 43 75 100.5t48 167.5l164 846q9 35 37 35h79q34 0 25 -35l-166 -860q-25 -129 -64.5 -214t-101.5 -136q-114 -98 -368 -98 q-83 0 -149.5 15.5t-121.5 50t-85.5 97t-30.5 148.5zM518 1536q0 15 10 70q7 37 35.5 58.5t67.5 21.5h20q36 0 56 -15.5t20 -44.5q0 -21 -10 -67q-7 -39 -36 -59.5t-71 -20.5h-20q-72 0 -72 57zM850 1536q0 8 10 70q6 38 33.5 59t69.5 21h20q36 0 56 -15.5t20 -44.5 q0 -18 -10 -67q-7 -39 -36 -59.5t-71 -20.5h-20q-72 0 -72 57z" />
<glyph unicode="&#xdd;" horiz-adv-x="927" d="M168 1300q-1 13 6.5 19t20.5 6h90q15 0 22 -4t8 -16q39 -419 140 -709h14q270 386 430 709q10 20 37 20h90q13 0 20 -6t1 -19q-104 -218 -229.5 -416t-307.5 -438l-80 -411q-6 -35 -37 -35h-80q-30 0 -24 35l80 416q-166 423 -201 849zM440 1485q-13 30 17 43l383 170 q14 6 23 7t16 -4.5t12 -17.5l27 -71q6 -17 -1.5 -26.5t-35.5 -18.5l-381 -135q-33 -11 -43 14z" />
<glyph unicode="&#xde;" horiz-adv-x="1028" d="M45 35l248 1274q5 34 39 34h80q15 0 20 -7.5t2 -26.5l-39 -187q103 15 178 15q424 0 424 -295q0 -95 -24 -191q-50 -185 -183.5 -267.5t-355.5 -82.5h-196l-52 -266q-6 -35 -36 -35h-80q-31 0 -25 35zM260 424q61 -2 170 -2q175 0 268.5 60t130.5 196q21 75 21 141 q0 113 -72 155t-229 42q-66 0 -178 -19z" />
<glyph unicode="&#xdf;" horiz-adv-x="1042" d="M-10 -102q59 146 102 356l156 790q23 119 57 184t94 105q107 72 283 72q152 0 238 -70q79 -67 79 -200q0 -45 -12 -115q-40 -217 -246 -279v-6q99 -17 153 -78.5t54 -160.5q0 -111 -35 -226q-44 -146 -158.5 -217t-269.5 -71q-111 0 -190 18q-19 4 -24.5 12.5t-0.5 24.5 l17 57q10 26 37 19q73 -17 157 -17q101 0 177 45t108 138q37 105 37 186q0 95 -41 141q-54 66 -209 66h-64q-18 0 -23.5 6t-2.5 20l12 62q6 28 35 28h22q132 0 218 64q42 31 64 75.5t36 106.5q10 45 10 88q0 88 -47.5 128t-146.5 40q-120 0 -189 -55q-37 -30 -61.5 -80 t-42.5 -141l-144 -740q-44 -225 -106 -380q-6 -15 -15.5 -20t-29.5 -5h-68q-14 0 -19.5 8t-0.5 21z" />
<glyph unicode="&#xe0;" horiz-adv-x="956" d="M53 184q0 98 37 203q38 107 124 158t255 51h88q60 0 150 -8l16 78q16 78 16 116q0 71 -39.5 98t-154.5 27q-113 0 -250 -39q-39 -12 -45 23l-8 51q-3 26 26 35q158 45 297 45q151 0 229 -49.5t78 -161.5q0 -45 -16 -123l-129 -668q-3 -20 -25 -20h-67q-24 0 -21 25l9 73 h-5q-82 -116 -264 -116h-51q-250 0 -250 202zM186 197q0 -103 140 -103h43q233 0 286 236l31 145q-65 8 -147 8h-99q-102 0 -153 -33.5t-78 -121.5q-23 -73 -23 -131zM330 1386l22 64q7 18 19 21t32 -7l388 -172q27 -12 14 -37l-21 -47q-8 -21 -41 -10l-391 139 q-34 12 -22 49z" />
<glyph unicode="&#xe1;" horiz-adv-x="956" d="M53 184q0 98 37 203q38 107 124 158t255 51h88q60 0 150 -8l16 78q16 78 16 116q0 71 -39.5 98t-154.5 27q-113 0 -250 -39q-39 -12 -45 23l-8 51q-3 26 26 35q158 45 297 45q151 0 229 -49.5t78 -161.5q0 -45 -16 -123l-129 -668q-3 -20 -25 -20h-67q-24 0 -21 25l9 73 h-5q-82 -116 -264 -116h-51q-250 0 -250 202zM186 197q0 -103 140 -103h43q233 0 286 236l31 145q-65 8 -147 8h-99q-102 0 -153 -33.5t-78 -121.5q-23 -73 -23 -131zM426 1251q-13 30 16 43l383 170q39 18 52 -14l26 -72q6 -17 -1.5 -26.5t-35.5 -18.5l-381 -135 q-33 -11 -43 14z" />
<glyph unicode="&#xe2;" horiz-adv-x="956" d="M53 184q0 98 37 203q38 107 124 158t255 51h88q60 0 150 -8l16 78q16 78 16 116q0 71 -39.5 98t-154.5 27q-113 0 -250 -39q-39 -12 -45 23l-8 51q-3 26 26 35q158 45 297 45q151 0 229 -49.5t78 -161.5q0 -45 -16 -123l-129 -668q-3 -20 -25 -20h-67q-24 0 -21 25l9 73 h-5q-82 -116 -264 -116h-51q-250 0 -250 202zM186 197q0 -103 140 -103h43q233 0 286 236l31 145q-65 8 -147 8h-99q-102 0 -153 -33.5t-78 -121.5q-23 -73 -23 -131zM332.5 1231.5q1.5 11.5 13.5 21.5l264 242q16 16 41 16h64q22 0 33 -16l172 -244q16 -22 -9 -41l-41 -30 q-29 -17 -45 4l-153 188h-10l-230 -192q-23 -20 -45 -4l-47 38q-9 6 -7.5 17.5z" />
<glyph unicode="&#xe3;" horiz-adv-x="956" d="M53 184q0 98 37 203q38 107 124 158t255 51h88q60 0 150 -8l16 78q16 78 16 116q0 71 -39.5 98t-154.5 27q-113 0 -250 -39q-39 -12 -45 23l-8 51q-3 26 26 35q158 45 297 45q151 0 229 -49.5t78 -161.5q0 -45 -16 -123l-129 -668q-3 -20 -25 -20h-67q-24 0 -21 25l9 73 h-5q-82 -116 -264 -116h-51q-250 0 -250 202zM186 197q0 -103 140 -103h43q233 0 286 236l31 145q-65 8 -147 8h-99q-102 0 -153 -33.5t-78 -121.5q-23 -73 -23 -131zM319 1288q113 158 230 158q38 0 62.5 -9t52.5 -32l51 -41q23 -20 36 -26.5t31 -6.5q24 0 52 21.5t73 70.5 q21 24 41 7l35 -29q20 -15 0 -41q-112 -154 -233 -154q-66 0 -111 39l-51 41q-38 33 -60 33q-31 0 -58.5 -18.5t-70.5 -71.5q-20 -25 -45 -6l-32 24q-21 15 -3 41z" />
<glyph unicode="&#xe4;" horiz-adv-x="956" d="M53 184q0 98 37 203q38 107 124 158t255 51h88q60 0 150 -8l16 78q16 78 16 116q0 71 -39.5 98t-154.5 27q-113 0 -250 -39q-39 -12 -45 23l-8 51q-3 26 26 35q158 45 297 45q151 0 229 -49.5t78 -161.5q0 -45 -16 -123l-129 -668q-3 -20 -25 -20h-67q-24 0 -21 25l9 73 h-5q-82 -116 -264 -116h-51q-250 0 -250 202zM186 197q0 -103 140 -103h43q233 0 286 236l31 145q-65 8 -147 8h-99q-102 0 -153 -33.5t-78 -121.5q-23 -73 -23 -131zM387 1286q0 15 10 70q7 37 35.5 58.5t67.5 21.5h20q36 0 56 -15.5t20 -44.5q0 -21 -10 -67 q-7 -39 -36 -59.5t-71 -20.5h-20q-72 0 -72 57zM719 1286q0 8 10 70q6 38 33 59t69 21h21q36 0 56 -15.5t20 -44.5q0 -18 -10 -67q-7 -39 -36 -59.5t-71 -20.5h-20q-72 0 -72 57z" />
<glyph unicode="&#xe5;" horiz-adv-x="956" d="M53 184q0 98 37 203q38 107 124 158t255 51h88q60 0 150 -8l16 78q16 78 16 116q0 71 -39.5 98t-154.5 27q-113 0 -250 -39q-39 -12 -45 23l-8 51q-3 26 26 35q158 45 297 45q151 0 229 -49.5t78 -161.5q0 -45 -16 -123l-129 -668q-3 -20 -25 -20h-67q-24 0 -21 25l9 73 h-5q-82 -116 -264 -116h-51q-250 0 -250 202zM186 197q0 -103 140 -103h43q233 0 286 236l31 145q-65 8 -147 8h-99q-102 0 -153 -33.5t-78 -121.5q-23 -73 -23 -131zM457 1296q0 94 64.5 154.5t158.5 60.5q70 0 114 -42.5t44 -108.5q0 -98 -64 -159.5t-158 -61.5 q-73 0 -116 43t-43 114zM555 1305q0 -31 20.5 -50.5t53.5 -19.5q47 0 78.5 31.5t31.5 74.5q0 33 -20.5 53.5t-54.5 20.5q-47 0 -78 -31.5t-31 -78.5z" />
<glyph unicode="&#xe6;" horiz-adv-x="1509" d="M53 184q0 80 35 193q33 107 121 158t258 51h88q60 0 150 -8l20 94q14 68 14 110q0 71 -39.5 98t-154.5 27q-113 0 -250 -39q-39 -12 -45 23l-8 51q-3 26 26 35q158 45 297 45q237 0 275 -127q44 66 115.5 96.5t185.5 30.5q303 0 303 -270q0 -41 -10 -103l-31 -174 q-6 -41 -60 -41l-528 2q-18 -99 -18 -155q0 -110 47.5 -148.5t181.5 -38.5q121 0 254 47q35 12 41 -16l10 -47q3 -15 -3.5 -23.5t-29.5 -17.5q-149 -55 -294 -55q-142 0 -213 37.5t-99 113.5q-97 -151 -338 -151h-51q-250 0 -250 202zM186 188q0 -49 34.5 -71.5t105.5 -22.5 h43q117 0 187.5 53.5t98.5 182.5l29 135q-55 8 -147 8h-99q-104 0 -155.5 -33.5t-75.5 -122.5q-21 -76 -21 -129zM836 543l415 -2q27 0 33 22l16 90q11 64 11 97q0 85 -43.5 122t-145.5 37q-113 0 -168 -47q-37 -32 -60.5 -87.5t-43.5 -156.5z" />
<glyph unicode="&#xe7;" horiz-adv-x="856" d="M78 270q0 94 49 332q46 223 160 321.5t295 98.5q70 0 142.5 -21.5t125.5 -54.5q20 -13 4 -39l-27 -45q-15 -26 -39 -14q-109 61 -213 61q-131 0 -207.5 -78t-115.5 -270q-41 -198 -41 -280q0 -106 47 -146.5t172 -40.5q110 0 227 45q29 11 35 -18l13 -51q3 -14 -1 -21.5 t-20 -13.5q-117 -47 -250 -53q-2 -3 -2 -5l-55 -108q30 6 76 6q55 0 88.5 -31t33.5 -90q0 -35 -6 -65q-9 -44 -26.5 -72.5t-53.5 -52.5q-53 -37 -165 -37q-82 0 -166 31q-17 7 -11 24l15 41q8 24 31 17q73 -25 133 -25q61 0 90 16q33 19 43 56q4 16 4 41q0 31 -16.5 44 t-53.5 13q-45 0 -100 -10q-14 -3 -27 10l-14 18q-12 12 0 33l72 144q0 1 1 3t1 3q-128 14 -188 82t-60 202z" />
<glyph unicode="&#xe8;" horiz-adv-x="921" d="M78 258q0 91 37 305q27 150 60.5 236.5t88.5 138.5q49 46 118.5 65t170.5 19q303 0 303 -270q0 -41 -10 -103l-33 -182q-6 -41 -59 -41h-529q-16 -88 -16 -145q0 -110 47.5 -148.5t181.5 -38.5q121 0 254 47q35 12 41 -16l10 -47q3 -15 -3 -24t-29 -17q-149 -55 -295 -55 q-98 0 -165.5 18.5t-104.5 56t-52.5 86t-15.5 115.5zM246 532h416q26 0 32 23l17 86q12 58 12 109q0 85 -43 122t-145 37q-115 0 -168 -45q-37 -32 -61 -88.5t-44 -157.5zM315 1386l23 64q7 18 19 21t32 -7l387 -172q27 -12 15 -37l-21 -47q-8 -21 -41 -10l-391 139 q-35 13 -23 49z" />
<glyph unicode="&#xe9;" horiz-adv-x="921" d="M78 258q0 91 37 305q27 150 60.5 236.5t88.5 138.5q49 46 118.5 65t170.5 19q303 0 303 -270q0 -41 -10 -103l-33 -182q-6 -41 -59 -41h-529q-16 -88 -16 -145q0 -110 47.5 -148.5t181.5 -38.5q121 0 254 47q35 12 41 -16l10 -47q3 -15 -3 -24t-29 -17q-149 -55 -295 -55 q-98 0 -165.5 18.5t-104.5 56t-52.5 86t-15.5 115.5zM246 532h416q26 0 32 23l17 86q12 58 12 109q0 85 -43 122t-145 37q-115 0 -168 -45q-37 -32 -61 -88.5t-44 -157.5zM424 1251q-13 30 16 43l383 170q20 10 32 7t19 -21l27 -72q6 -17 -1.5 -26.5t-35.5 -18.5l-381 -135 q-33 -11 -43 14z" />
<glyph unicode="&#xea;" horiz-adv-x="921" d="M78 258q0 91 37 305q27 150 60.5 236.5t88.5 138.5q49 46 118.5 65t170.5 19q303 0 303 -270q0 -41 -10 -103l-33 -182q-6 -41 -59 -41h-529q-16 -88 -16 -145q0 -110 47.5 -148.5t181.5 -38.5q121 0 254 47q35 12 41 -16l10 -47q3 -15 -3 -24t-29 -17q-149 -55 -295 -55 q-98 0 -165.5 18.5t-104.5 56t-52.5 86t-15.5 115.5zM246 532h416q26 0 32 23l17 86q12 58 12 109q0 85 -43 122t-145 37q-115 0 -168 -45q-37 -32 -61 -88.5t-44 -157.5zM291.5 1231.5q1.5 11.5 13.5 21.5l264 242q16 16 41 16h64q22 0 33 -16l172 -244q16 -22 -9 -41 l-41 -30q-29 -17 -45 4l-153 188h-10l-230 -192q-23 -20 -45 -4l-47 38q-9 6 -7.5 17.5z" />
<glyph unicode="&#xeb;" horiz-adv-x="921" d="M78 258q0 91 37 305q27 150 60.5 236.5t88.5 138.5q49 46 118.5 65t170.5 19q303 0 303 -270q0 -41 -10 -103l-33 -182q-6 -41 -59 -41h-529q-16 -88 -16 -145q0 -110 47.5 -148.5t181.5 -38.5q121 0 254 47q35 12 41 -16l10 -47q3 -15 -3 -24t-29 -17q-149 -55 -295 -55 q-98 0 -165.5 18.5t-104.5 56t-52.5 86t-15.5 115.5zM246 532h416q26 0 32 23l17 86q12 58 12 109q0 85 -43 122t-145 37q-115 0 -168 -45q-37 -32 -61 -88.5t-44 -157.5zM354 1286q0 10 11 70q7 38 35 59t67 21h20q36 0 56 -15.5t20 -44.5q0 -21 -10 -67q-7 -39 -36 -59.5 t-71 -20.5h-20q-72 0 -72 57zM686 1286q0 8 10 70q6 38 33.5 59t69.5 21h20q36 0 56 -15.5t20 -44.5q0 -18 -10 -67q-7 -39 -36 -59.5t-71 -20.5h-20q-72 0 -72 57z" />
<glyph unicode="&#xec;" horiz-adv-x="462" d="M31 1386l22 64q7 18 19 21t32 -7l388 -172q27 -12 14 -37l-21 -47q-8 -21 -41 -10l-391 139q-34 12 -22 49zM78 16l186 965q6 23 29 23h84q23 0 20 -23l-186 -965q-3 -16 -21 -16h-98q-17 0 -14 16z" />
<glyph unicode="&#xed;" horiz-adv-x="462" d="M78 16l186 965q6 23 29 23h84q23 0 20 -23l-186 -965q-3 -16 -21 -16h-98q-17 0 -14 16zM250 1251q-13 30 16 43l383 170q20 10 32 7t19 -21l27 -72q6 -17 -1.5 -26.5t-35.5 -18.5l-381 -135q-33 -11 -43 14z" />
<glyph unicode="&#xee;" horiz-adv-x="462" d="M72.5 1231.5q1.5 11.5 13.5 21.5l264 242q16 16 41 16h64q21 0 32 -16l172 -244q16 -22 -8 -41l-41 -30q-29 -17 -45 4l-153 188h-11l-229 -192q-23 -20 -45 -4l-47 38q-9 6 -7.5 17.5zM78 16l186 965q6 23 29 23h84q23 0 20 -23l-186 -965q-3 -16 -21 -16h-98 q-17 0 -14 16z" />
<glyph unicode="&#xef;" horiz-adv-x="462" d="M78 16l186 965q6 23 29 23h84q23 0 20 -23l-186 -965q-3 -16 -21 -16h-98q-17 0 -14 16zM115 1286q0 15 10 70q7 38 35 59t67 21h21q36 0 56 -15.5t20 -44.5q0 -17 -11 -67q-7 -39 -35.5 -59.5t-70.5 -20.5h-21q-71 0 -71 57zM446 1286q0 2 11 70q6 38 33 59t69 21h21 q75 0 75 -60q0 -18 -10 -67q-7 -39 -35.5 -59.5t-70.5 -20.5h-21q-72 0 -72 57z" />
<glyph unicode="&#xf0;" horiz-adv-x="985" d="M76 254q0 59 39 317q33 208 123 291.5t262 83.5q83 0 144 -28.5t91 -71.5l4 4q-30 237 -166 356l-211 -116q-12 -7 -19.5 -4.5t-16.5 16.5l-15 24q-14 27 11 43l178 101q-51 40 -125 73q-11 5 -13.5 17t7.5 26l30 41q17 23 41 11q104 -48 172 -103l158 88q27 15 41 -10 l16 -27q14 -23 -14 -40l-131 -76q141 -141 178 -367q32 -203 -18 -475q-15 -84 -31.5 -143t-41 -112.5t-57 -87t-79 -58.5t-108 -36t-142.5 -11q-164 0 -235.5 68.5t-71.5 205.5zM211 281q0 -96 40.5 -140.5t149.5 -44.5q71 0 114.5 11.5t80 47t59.5 96.5t45 165 q25 113 25 188q0 109 -54.5 167t-158.5 58q-74 0 -122 -17.5t-77 -58.5t-43 -88.5t-26 -127.5q-33 -222 -33 -256z" />
<glyph unicode="&#xf1;" horiz-adv-x="1017" d="M51 31l182 952q3 21 27 21h62q13 0 18.5 -5t3.5 -16l-10 -88h4q41 50 106 86q77 41 207 41q97 0 155 -23t89 -73q30 -49 33 -120.5t-19 -184.5l-112 -592q-4 -29 -31 -29h-72q-23 0 -29 6.5t-1 28.5l114 598q19 93 18.5 145t-22.5 82q-20 28 -56.5 39.5t-101.5 11.5 q-125 0 -204 -65q-83 -68 -115 -230l-113 -585q-2 -11 -5 -16.5t-10 -10t-19 -4.5h-70q-19 0 -25.5 7t-3.5 24zM362 1288q113 158 230 158q38 0 62.5 -9t52.5 -32l51 -41q23 -20 36 -26.5t31 -6.5q24 0 52 21.5t73 70.5q21 24 41 7l35 -29q20 -15 0 -41q-112 -154 -233 -154 q-66 0 -111 39l-51 41q-38 33 -60 33q-31 0 -58.5 -18.5t-70.5 -71.5q-20 -25 -45 -6l-32 24q-21 15 -3 41z" />
<glyph unicode="&#xf2;" horiz-adv-x="980" d="M78 268q0 92 33 269q28 139 59.5 224.5t85.5 147.5t132 87.5t196 25.5q171 0 246 -70.5t75 -216.5q0 -91 -33 -268q-28 -139 -59.5 -224.5t-85.5 -147.5t-132 -87.5t-196 -25.5q-162 0 -241.5 68.5t-79.5 217.5zM213 272q0 -97 49 -137.5t156 -40.5q67 0 116.5 19.5 t82 51.5t57.5 90.5t40 117.5t31 151q25 154 25 207q0 95 -48.5 136.5t-156.5 41.5q-67 0 -116.5 -19.5t-82 -51.5t-57.5 -90.5t-40 -117.5t-31 -151q-25 -154 -25 -207zM340 1386l22 64q13 32 52 14l387 -172q27 -12 14 -37l-20 -47q-8 -21 -41 -10l-392 139q-34 12 -22 49z " />
<glyph unicode="&#xf3;" horiz-adv-x="980" d="M78 268q0 92 33 269q28 139 59.5 224.5t85.5 147.5t132 87.5t196 25.5q171 0 246 -70.5t75 -216.5q0 -91 -33 -268q-28 -139 -59.5 -224.5t-85.5 -147.5t-132 -87.5t-196 -25.5q-162 0 -241.5 68.5t-79.5 217.5zM213 272q0 -97 49 -137.5t156 -40.5q67 0 116.5 19.5 t82 51.5t57.5 90.5t40 117.5t31 151q25 154 25 207q0 95 -48.5 136.5t-156.5 41.5q-67 0 -116.5 -19.5t-82 -51.5t-57.5 -90.5t-40 -117.5t-31 -151q-25 -154 -25 -207zM467 1251q-13 30 16 43l383 170q39 18 52 -14l26 -72q6 -17 -1.5 -26.5t-35.5 -18.5l-381 -135 q-33 -11 -43 14z" />
<glyph unicode="&#xf4;" horiz-adv-x="980" d="M78 268q0 92 33 269q28 139 59.5 224.5t85.5 147.5t132 87.5t196 25.5q171 0 246 -70.5t75 -216.5q0 -91 -33 -268q-28 -139 -59.5 -224.5t-85.5 -147.5t-132 -87.5t-196 -25.5q-162 0 -241.5 68.5t-79.5 217.5zM213 272q0 -97 49 -137.5t156 -40.5q67 0 116.5 19.5 t82 51.5t57.5 90.5t40 117.5t31 151q25 154 25 207q0 95 -48.5 136.5t-156.5 41.5q-67 0 -116.5 -19.5t-82 -51.5t-57.5 -90.5t-40 -117.5t-31 -151q-25 -154 -25 -207zM336.5 1231.5q1.5 11.5 13.5 21.5l264 242q16 16 41 16h64q22 0 33 -16l172 -244q16 -22 -9 -41 l-41 -30q-29 -17 -45 4l-153 188h-10l-230 -192q-23 -20 -45 -4l-47 38q-9 6 -7.5 17.5z" />
<glyph unicode="&#xf5;" horiz-adv-x="980" d="M78 268q0 92 33 269q28 139 59.5 224.5t85.5 147.5t132 87.5t196 25.5q171 0 246 -70.5t75 -216.5q0 -91 -33 -268q-28 -139 -59.5 -224.5t-85.5 -147.5t-132 -87.5t-196 -25.5q-162 0 -241.5 68.5t-79.5 217.5zM213 272q0 -97 49 -137.5t156 -40.5q67 0 116.5 19.5 t82 51.5t57.5 90.5t40 117.5t31 151q25 154 25 207q0 95 -48.5 136.5t-156.5 41.5q-67 0 -116.5 -19.5t-82 -51.5t-57.5 -90.5t-40 -117.5t-31 -151q-25 -154 -25 -207zM317 1288q113 158 230 158q38 0 62.5 -9t52.5 -32l51 -41q23 -20 36 -26.5t31 -6.5q24 0 52 21.5 t73 70.5q21 24 41 7l35 -29q20 -15 0 -41q-112 -154 -233 -154q-66 0 -111 39l-51 41q-38 33 -60 33q-31 0 -58.5 -18.5t-70.5 -71.5q-20 -25 -45 -6l-33 24q-20 15 -2 41z" />
<glyph unicode="&#xf6;" horiz-adv-x="980" d="M78 268q0 92 33 269q28 139 59.5 224.5t85.5 147.5t132 87.5t196 25.5q171 0 246 -70.5t75 -216.5q0 -91 -33 -268q-28 -139 -59.5 -224.5t-85.5 -147.5t-132 -87.5t-196 -25.5q-162 0 -241.5 68.5t-79.5 217.5zM213 272q0 -97 49 -137.5t156 -40.5q67 0 116.5 19.5 t82 51.5t57.5 90.5t40 117.5t31 151q25 154 25 207q0 95 -48.5 136.5t-156.5 41.5q-67 0 -116.5 -19.5t-82 -51.5t-57.5 -90.5t-40 -117.5t-31 -151q-25 -154 -25 -207zM371 1286q0 15 10 70q7 38 35 59t67 21h21q36 0 56 -15.5t20 -44.5q0 -17 -11 -67q-7 -39 -35.5 -59.5 t-70.5 -20.5h-21q-71 0 -71 57zM702 1286q0 2 11 70q6 38 33 59t69 21h21q75 0 75 -60q0 -18 -10 -67q-7 -39 -35.5 -59.5t-70.5 -20.5h-21q-72 0 -72 57z" />
<glyph unicode="&#xf7;" d="M63 504l11 59q7 31 39 31h841q18 0 22 -7.5t1 -23.5l-10 -63q-3 -27 -37 -27h-842q-18 0 -23 7.5t-2 23.5zM334 123q0 15 12 76q7 39 37.5 61.5t73.5 22.5h20q80 0 80 -66q0 -13 -12 -72q-18 -84 -111 -84h-20q-80 0 -80 62zM473 846q0 15 12 76q7 39 37.5 61.5 t73.5 22.5h20q80 0 80 -66q0 -13 -12 -72q-18 -84 -111 -84h-20q-80 0 -80 62z" />
<glyph unicode="&#xf8;" horiz-adv-x="980" d="M78 268q0 92 33 269q28 139 59.5 224.5t85.5 147.5t132 87.5t196 25.5q78 0 133 -14l69 129q14 32 41 24l37 -8q24 -8 10 -39l-75 -139q106 -67 106 -240q0 -91 -33 -268q-28 -139 -59.5 -224.5t-85.5 -147.5t-132 -87.5t-196 -25.5q-66 0 -131 14l-69 -129 q-14 -33 -41 -25l-35 8q-15 4 -17 13t7 26l73 140q-108 67 -108 239zM213 272q0 -87 37 -127l407 754q-42 10 -92 10q-67 0 -116.5 -19.5t-82 -51.5t-57.5 -90.5t-40 -117.5t-31 -151q-25 -154 -25 -207zM326 102q36 -8 92 -8q67 0 116.5 19.5t82 51.5t57.5 90.5t40 117.5 t31 151q25 154 25 207q0 80 -37 123z" />
<glyph unicode="&#xf9;" horiz-adv-x="1001" d="M92 219q0 42 14 121l123 635q6 29 35 29h76q28 0 22 -29l-120 -615q-15 -74 -15 -120q0 -74 43.5 -107t153.5 -33q132 0 199 64q34 32 52.5 75t33.5 123l120 615q1 12 9.5 19.5t19.5 7.5h82q27 0 21 -27l-123 -635q-21 -107 -48.5 -168.5t-76.5 -103.5 q-55 -47 -126 -67.5t-184 -20.5q-311 0 -311 237zM297 1386l22 64q13 32 52 14l387 -172q27 -12 14 -37l-20 -47q-8 -21 -41 -10l-392 139q-34 12 -22 49z" />
<glyph unicode="&#xfa;" horiz-adv-x="1001" d="M92 219q0 42 14 121l123 635q6 29 35 29h76q28 0 22 -29l-120 -615q-15 -74 -15 -120q0 -74 43.5 -107t153.5 -33q132 0 199 64q34 32 52.5 75t33.5 123l120 615q1 12 9.5 19.5t19.5 7.5h82q27 0 21 -27l-123 -635q-21 -107 -48.5 -168.5t-76.5 -103.5 q-55 -47 -126 -67.5t-184 -20.5q-311 0 -311 237zM487 1251q-13 30 17 43l383 170q20 10 32 7t19 -21l27 -72q6 -17 -1.5 -26.5t-35.5 -18.5l-381 -135q-33 -11 -43 14z" />
<glyph unicode="&#xfb;" horiz-adv-x="1001" d="M92 219q0 42 14 121l123 635q6 29 35 29h76q28 0 22 -29l-120 -615q-15 -74 -15 -120q0 -74 43.5 -107t153.5 -33q132 0 199 64q34 32 52.5 75t33.5 123l120 615q1 12 9.5 19.5t19.5 7.5h82q27 0 21 -27l-123 -635q-21 -107 -48.5 -168.5t-76.5 -103.5 q-55 -47 -126 -67.5t-184 -20.5q-311 0 -311 237zM334.5 1231.5q1.5 11.5 13.5 21.5l264 242q16 16 41 16h64q22 0 33 -16l172 -244q16 -22 -9 -41l-41 -30q-29 -17 -45 4l-153 188h-10l-230 -192q-23 -20 -45 -4l-47 38q-9 6 -7.5 17.5z" />
<glyph unicode="&#xfc;" horiz-adv-x="1001" d="M92 219q0 42 14 121l123 635q6 29 35 29h76q28 0 22 -29l-120 -615q-15 -74 -15 -120q0 -74 43.5 -107t153.5 -33q132 0 199 64q34 32 52.5 75t33.5 123l120 615q1 12 9.5 19.5t19.5 7.5h82q27 0 21 -27l-123 -635q-21 -107 -48.5 -168.5t-76.5 -103.5 q-55 -47 -126 -67.5t-184 -20.5q-311 0 -311 237zM387 1286q0 15 10 70q7 37 35.5 58.5t67.5 21.5h20q36 0 56 -15.5t20 -44.5q0 -21 -10 -67q-7 -39 -36 -59.5t-71 -20.5h-20q-72 0 -72 57zM719 1286q0 8 10 70q6 38 33 59t69 21h21q36 0 56 -15.5t20 -44.5q0 -18 -10 -67 q-7 -39 -36 -59.5t-71 -20.5h-20q-72 0 -72 57z" />
<glyph unicode="&#xfd;" horiz-adv-x="845" d="M106 979q0 25 27 25h86q25 0 25 -23q20 -489 63 -815q6 -46 41 -49q187 341 410 870q7 17 26 17h93q13 0 17 -8t-1 -19q-173 -404 -315 -686q-146 -290 -340 -625q-11 -19 -22 -24t-30 2l-63 24q-31 11 -8 45q122 206 176 301q-90 13 -107 129q-48 308 -78 836zM365 1251 q-13 30 16 43l383 170q20 10 32 7t19 -21l27 -72q6 -17 -1.5 -26.5t-35.5 -18.5l-381 -135q-33 -11 -43 14z" />
<glyph unicode="&#xfe;" horiz-adv-x="1026" d="M-23 -340l330 1698q3 17 9.5 22.5t21.5 5.5h80q28 0 22 -28l-88 -447h4q47 54 93 76q75 35 186 35q170 0 250 -80q35 -37 50 -84.5t15 -124.5q0 -92 -39 -282q-35 -170 -68 -248.5t-91 -132.5q-54 -48 -126.5 -68t-185.5 -20q-190 0 -241 118h-4l-84 -440q-3 -22 -23 -22 h-94q-20 0 -17 22zM250 383q-28 -148 22 -219q51 -70 181 -70q131 0 198 62q42 39 70.5 109t56.5 202q33 154 33 238q0 105 -37 149q-46 55 -176 55q-133 0 -203 -61q-40 -34 -59 -80.5t-39 -144.5z" />
<glyph unicode="&#xff;" horiz-adv-x="845" d="M106 979q0 25 27 25h86q25 0 25 -23q20 -489 63 -815q6 -46 41 -49q187 341 410 870q7 17 26 17h93q13 0 17 -8t-1 -19q-173 -404 -315 -686q-146 -290 -340 -625q-11 -19 -22 -24t-30 2l-63 24q-31 11 -8 45q122 206 176 301q-90 13 -107 129q-48 308 -78 836zM283 1286 q0 15 10 70q7 38 35 59t67 21h21q36 0 56 -15.5t20 -44.5q0 -17 -11 -67q-7 -39 -35.5 -59.5t-70.5 -20.5h-21q-71 0 -71 57zM614 1286q0 2 11 70q6 38 33 59t69 21h21q75 0 75 -60q0 -18 -10 -67q-7 -39 -35.5 -59.5t-70.5 -20.5h-21q-72 0 -72 57z" />
<glyph unicode="&#x152;" horiz-adv-x="1720" d="M104 350q0 23 1.5 49t3.5 47t6 50t6.5 46t8 48.5t8 43t9 44.5t7.5 39q42 208 93 326t142 196q121 104 344 104q226 0 309 -137q22 55 56 78q58 41 180 41h471q18 0 23 -7.5t2 -23.5l-13 -59q-7 -31 -37 -31h-460q-59 0 -88 -20q-29 -23 -41 -84l-70 -355h502 q18 0 22.5 -7t1.5 -23l-12 -60q-7 -30 -37 -30h-500l-77 -400q-12 -59 10 -84q17 -20 80 -20h461q29 0 22 -31l-10 -59q-3 -17 -10 -24t-25 -7h-471q-77 0 -125.5 33.5t-58.5 99.5q-45 -76 -134 -113.5t-196 -37.5q-203 0 -303.5 82t-100.5 286zM254 373q0 -151 52 -211 t204 -60q133 0 223.5 82.5t122.5 241.5l96 481q31 156 -32.5 236t-192.5 80q-83 0 -140 -20t-104 -62q-71 -64 -108.5 -163t-77.5 -288q-43 -214 -43 -317z" />
<glyph unicode="&#x153;" horiz-adv-x="1558" d="M78 268q0 92 33 269q28 139 59.5 224.5t85.5 147.5t132 87.5t196 25.5q111 0 182 -36t96 -101q45 71 124.5 104t203.5 33q303 0 303 -270q0 -41 -10 -103l-35 -184q-6 -41 -59 -41l-525 2q-18 -90 -18 -145q0 -110 47.5 -148.5t181.5 -38.5q121 0 254 47q35 12 41 -16 l10 -47q3 -15 -3 -24t-29 -17q-149 -55 -295 -55q-144 0 -218 39.5t-100 117.5q-81 -157 -336 -157q-162 0 -241.5 68.5t-79.5 217.5zM213 272q0 -97 49 -137.5t156 -40.5q64 0 111.5 17.5t80 47t57 81t40 107t30.5 136.5q3 21 13 75t15 94t5 79q0 91 -49 134.5t-156 43.5 q-67 0 -116.5 -19.5t-82 -51.5t-57.5 -90.5t-40 -117.5t-31 -151q-25 -154 -25 -207zM885 532l411 -2q27 0 33 23l21 100q10 58 10 97q0 85 -43.5 122t-145.5 37q-114 0 -167 -45q-40 -36 -68 -107t-51 -225z" />
<glyph unicode="&#x178;" horiz-adv-x="927" d="M168 1300q-1 13 6.5 19t20.5 6h90q15 0 22 -4t8 -16q39 -419 140 -709h14q270 386 430 709q10 20 37 20h90q13 0 20 -6t1 -19q-104 -218 -229.5 -416t-307.5 -438l-80 -411q-6 -35 -37 -35h-80q-30 0 -24 35l80 416q-166 423 -201 849zM379 1536q0 15 10 70 q7 37 35.5 58.5t67.5 21.5h20q36 0 56 -15.5t20 -44.5q0 -21 -10 -67q-7 -39 -36 -59.5t-71 -20.5h-20q-72 0 -72 57zM711 1536q0 8 10 70q6 38 33 59t69 21h21q36 0 56 -15.5t20 -44.5q0 -13 -11 -67q-7 -39 -35.5 -59.5t-70.5 -20.5h-21q-71 0 -71 57z" />
<glyph unicode="&#x2c6;" horiz-adv-x="770" d="M222 1231.5q2 11.5 14 21.5l264 242q16 16 41 16h63q22 0 33 -16l172 -244q16 -22 -8 -41l-41 -30q-29 -17 -45 4l-154 188h-10l-229 -192q-23 -20 -46 -4l-47 38q-9 6 -7 17.5z" />
<glyph unicode="&#x2dc;" horiz-adv-x="833" d="M233 1288q113 158 230 158q38 0 62.5 -9t52.5 -32l51 -41q23 -20 36 -26.5t31 -6.5q24 0 52 21.5t73 70.5q21 24 41 7l35 -29q20 -15 0 -41q-112 -154 -233 -154q-66 0 -111 39l-51 41q-38 33 -60 33q-31 0 -58.5 -18.5t-70.5 -71.5q-20 -25 -45 -6l-32 24q-21 15 -3 41z " />
<glyph unicode="&#x2000;" horiz-adv-x="881" />
<glyph unicode="&#x2001;" horiz-adv-x="1763" />
<glyph unicode="&#x2002;" horiz-adv-x="881" />
<glyph unicode="&#x2003;" horiz-adv-x="1763" />
<glyph unicode="&#x2004;" horiz-adv-x="587" />
<glyph unicode="&#x2005;" horiz-adv-x="440" />
<glyph unicode="&#x2006;" horiz-adv-x="293" />
<glyph unicode="&#x2007;" horiz-adv-x="293" />
<glyph unicode="&#x2008;" horiz-adv-x="220" />
<glyph unicode="&#x2009;" horiz-adv-x="352" />
<glyph unicode="&#x200a;" horiz-adv-x="97" />
<glyph unicode="&#x2010;" horiz-adv-x="608" d="M66 496l14 75q7 31 37 31h395q32 0 25 -31l-15 -79q-6 -27 -37 -27h-395q-18 0 -22.5 7.5t-1.5 23.5z" />
<glyph unicode="&#x2011;" horiz-adv-x="608" d="M66 496l14 75q7 31 37 31h395q32 0 25 -31l-15 -79q-6 -27 -37 -27h-395q-18 0 -22.5 7.5t-1.5 23.5z" />
<glyph unicode="&#x2012;" horiz-adv-x="608" d="M66 496l14 75q7 31 37 31h395q32 0 25 -31l-15 -79q-6 -27 -37 -27h-395q-18 0 -22.5 7.5t-1.5 23.5z" />
<glyph unicode="&#x2013;" horiz-adv-x="1032" d="M-6 496l14 75q7 31 37 31h963q31 0 24 -31l-14 -79q-6 -27 -37 -27h-963q-18 0 -22.5 7.5t-1.5 23.5z" />
<glyph unicode="&#x2014;" horiz-adv-x="2056" d="M-6 496l14 75q7 31 37 31h1987q31 0 24 -31l-14 -79q-6 -27 -37 -27h-1987q-18 0 -22.5 7.5t-1.5 23.5z" />
<glyph unicode="&#x2018;" horiz-adv-x="350" d="M119 1016q0 30 8 71q16 75 57 148q48 89 123 160q18 18 37 4l33 -23q19 -16 -4 -39q-36 -36 -56 -67q-32 -47 -47 -80q-14 -28 4 -37l29 -16q33 -17 33 -54q0 -20 -10 -69q-8 -37 -30 -53.5t-65 -16.5h-28q-44 0 -64 16.5t-20 55.5z" />
<glyph unicode="&#x2019;" horiz-adv-x="350" d="M180 977q-19 16 4 39q36 36 56 67q32 47 47 80q14 28 -4 37l-29 17q-33 17 -33 53q0 20 10 69q8 37 30 53.5t65 16.5h28q44 0 64 -16.5t20 -55.5q0 -30 -8 -71q-16 -75 -57 -148q-48 -89 -123 -160q-18 -18 -37 -4z" />
<glyph unicode="&#x201a;" horiz-adv-x="264" d="M4 -240q-19 16 4 39q32 32 55 68q35 51 48 80q14 28 -5 37l-28 16q-33 17 -33 53q0 21 10 70q8 37 30 53.5t65 16.5h28q44 0 64 -16.5t20 -55.5q0 -31 -8 -72q-16 -74 -57 -147q-48 -89 -123 -160q-18 -18 -37 -4z" />
<glyph unicode="&#x201c;" horiz-adv-x="671" d="M119 1016q0 30 8 71q16 75 57 148q48 89 123 160q18 18 37 4l33 -23q19 -16 -4 -39q-36 -36 -56 -67q-32 -47 -47 -80q-14 -28 4 -37l29 -16q33 -17 33 -54q0 -20 -10 -69q-8 -37 -30 -53.5t-65 -16.5h-28q-44 0 -64 16.5t-20 55.5zM440 1016q0 24 9 71q16 75 57 148 q48 89 123 160q18 18 37 4l32 -23q19 -16 -4 -39q-34 -34 -55 -67q-32 -47 -47 -80q-14 -28 4 -37l29 -16q32 -17 32 -54q0 -20 -10 -69q-8 -37 -29.5 -53.5t-64.5 -16.5h-29q-44 0 -64 16.5t-20 55.5z" />
<glyph unicode="&#x201d;" horiz-adv-x="671" d="M180 977q-19 16 4 39q36 36 56 67q32 47 47 80q14 28 -4 37l-29 17q-33 17 -33 53q0 20 10 69q8 37 30 53.5t65 16.5h28q44 0 64 -16.5t20 -55.5q0 -30 -8 -71q-16 -75 -57 -148q-48 -89 -123 -160q-18 -18 -37 -4zM502 977q-19 16 4 39q34 34 55 67q32 47 47 80 q14 28 -4 37l-29 17q-32 17 -32 53q0 20 10 69q8 37 29.5 53.5t64.5 16.5h29q44 0 64 -16.5t20 -55.5q0 -30 -8 -71q-15 -72 -58 -148q-48 -89 -123 -160q-17 -17 -36 -4z" />
<glyph unicode="&#x201e;" horiz-adv-x="585" d="M4 -240q-19 16 4 39q32 32 55 68q35 51 48 80q14 28 -5 37l-28 16q-33 17 -33 53q0 21 10 70q8 37 30 53.5t65 16.5h28q44 0 64 -16.5t20 -55.5q0 -31 -8 -72q-16 -74 -57 -147q-48 -89 -123 -160q-18 -18 -37 -4zM326 -240q-19 16 4 39q32 32 55 68q32 47 47 80 q14 28 -4 37l-29 16q-32 17 -32 53q0 21 10 70q8 37 29.5 53.5t64.5 16.5h29q44 0 64 -16.5t20 -55.5q0 -25 -9 -72q-16 -74 -57 -147q-48 -89 -123 -160q-18 -18 -37 -4z" />
<glyph unicode="&#x2022;" horiz-adv-x="747" d="M123 481q0 132 84.5 215.5t210.5 83.5q91 0 147 -56.5t56 -145.5q0 -130 -84.5 -208.5t-212.5 -78.5q-91 0 -146 53t-55 137z" />
<glyph unicode="&#x2026;" horiz-adv-x="1187" d="M-98 35q0 29 10 78q7 39 34 59.5t68 20.5h21q36 0 56 -15t20 -43q0 -18 -11 -72q-15 -79 -104 -79h-21q-34 0 -53.5 14t-19.5 37zM295 35q0 29 10 78q7 39 34.5 59.5t68.5 20.5h20q36 0 56 -15t20 -43q0 -23 -10 -72q-15 -79 -105 -79h-20q-34 0 -54 14t-20 37zM688 35 q0 29 10 78q7 39 34.5 59.5t68.5 20.5h20q36 0 56 -15t20 -43q0 -23 -10 -72q-15 -79 -105 -79h-20q-34 0 -54 14t-20 37z" />
<glyph unicode="&#x202f;" horiz-adv-x="352" />
<glyph unicode="&#x2039;" horiz-adv-x="591" d="M82 449q0 14 10 47q8 24 35 43l332 235q26 17 43 0l37 -43q22 -22 -4 -41l-291 -229l188 -207q22 -24 2 -41l-43 -35q-19 -17 -49 10l-242 228q-18 18 -18 33z" />
<glyph unicode="&#x203a;" horiz-adv-x="591" d="M18 219q-21 21 5 41l290 229l-188 207q-22 24 -2 41l43 35q19 17 49 -10l242 -227q18 -18 18 -33q0 -14 -10 -47q-8 -24 -35 -43l-332 -236q-26 -17 -43 0z" />
<glyph unicode="&#x205f;" horiz-adv-x="440" />
<glyph unicode="&#x20ac;" d="M16 477l11 53q7 31 36 31h138q4 21 12 68.5t12 70.5h-135q-18 0 -22.5 7.5t-1.5 23.5l10 53q7 31 37 31h135q31 168 73 266t111 160q116 102 340 102q175 0 320 -77q30 -15 14 -41l-37 -60q-14 -22 -45 -6q-49 28 -121.5 46t-132.5 18q-156 0 -231 -70q-52 -47 -85 -124 t-59 -214h443q31 0 24 -31l-10 -57q-6 -27 -37 -27h-446l-25 -139h444q32 0 25 -31l-12 -57q-4 -27 -35 -27h-436q-4 -31 -4 -77q0 -149 57.5 -209t214.5 -60q134 0 262 47q22 7 31 2.5t12 -22.5l8 -49q5 -29 -26 -41q-59 -24 -144.5 -39.5t-156.5 -15.5q-224 0 -315 85.5 t-91 282.5q0 40 6 96h-143q-18 0 -23 7.5t-2 23.5z" />
<glyph unicode="&#x2122;" horiz-adv-x="1388" d="M205 1245l14 70q2 14 19 14h432q12 0 12 -16l-14 -68q-3 -14 -19 -14h-162l-96 -504q-3 -16 -18 -16h-80q-17 0 -14 16l96 504h-158q-15 0 -12 14zM637 727q54 238 143 561q6 24 18.5 32.5t37.5 8.5h86q24 0 33 -9t12 -38l15 -137.5t16.5 -146.5t15.5 -121h10 q93 170 205 405q13 28 27 37.5t38 9.5h86q23 0 31 -9.5t6 -33.5q-23 -255 -69 -559q-3 -16 -17 -16h-78q-17 0 -14 16q48 289 72 496h-6q-13 -26 -41 -85.5t-42 -88t-36.5 -74t-43.5 -84.5t-44 -80q-10 -21 -19.5 -26t-31.5 -5h-78q-23 0 -31.5 6.5t-11.5 24.5 q-32 209 -54 412h-6q-52 -184 -121 -496q-3 -16 -18 -16h-78q-15 0 -12 16z" />
<glyph unicode="&#xe000;" horiz-adv-x="1003" d="M0 0v1004h1004v-1004h-1004z" />
</font>
</defs>
</svg>
